<svg width="22" height="22" viewBox="0 0 22 22" fill="none" xmlns="http://www.w3.org/2000/svg">
<g clip-path="url(#clip0_3545_824)">
<path fill-rule="evenodd" clip-rule="evenodd" d="M11 12.2962L16.1856 17.4818C16.3585 17.6488 16.59 17.7412 16.8304 17.7391C17.0707 17.737 17.3006 17.6406 17.4706 17.4706C17.6405 17.3007 17.7369 17.0708 17.739 16.8304C17.7411 16.5901 17.6487 16.3585 17.4818 16.1856L12.2962 11.0001L17.4818 5.81447C17.6487 5.64159 17.7411 5.41003 17.739 5.16969C17.7369 4.92934 17.6405 4.69943 17.4706 4.52947C17.3006 4.35951 17.0707 4.26311 16.8304 4.26102C16.59 4.25893 16.3585 4.35133 16.1856 4.51831L11 9.70389L5.81442 4.51831C5.64075 4.35545 5.41055 4.26656 5.1725 4.27042C4.93446 4.27429 4.70726 4.37061 4.53898 4.53902C4.37069 4.70742 4.27453 4.93469 4.27083 5.17273C4.26713 5.41078 4.35619 5.64092 4.51917 5.81447L9.70383 11.0001L4.51825 16.1856C4.4307 16.2702 4.36087 16.3713 4.31282 16.4832C4.26478 16.595 4.2395 16.7153 4.23844 16.837C4.23738 16.9587 4.26057 17.0794 4.30666 17.1921C4.35275 17.3048 4.42082 17.4071 4.50689 17.4932C4.59296 17.5792 4.6953 17.6473 4.80796 17.6934C4.92061 17.7395 5.04132 17.7627 5.16303 17.7616C5.28475 17.7606 5.40503 17.7353 5.51687 17.6872C5.62871 17.6392 5.72986 17.5694 5.81442 17.4818L11 12.2962Z" fill="black"/>
</g>
<defs>
<clipPath id="clip0_3545_824">
<rect width="22" height="22" fill="white"/>
</clipPath>
</defs>
</svg>
