<svg width="18" height="14" viewBox="0 0 18 14" fill="none" xmlns="http://www.w3.org/2000/svg">
<g clip-path="url(#clip0_3532_106)">
<path d="M17.5 3.09264V11.3745C17.5 12.0441 17.2442 12.6883 16.7849 13.1755C16.3255 13.6626 15.6974 13.9559 15.029 13.9951L14.875 13.9995H2.625C1.95544 13.9995 1.31117 13.7437 0.824022 13.2844C0.336869 12.825 0.0436559 12.1969 0.0043751 11.5285L0 11.3745V3.09264L8.26437 8.60251L8.36588 8.66026C8.48549 8.71871 8.61687 8.74909 8.75 8.74909C8.88313 8.74909 9.01451 8.71871 9.13412 8.66026L9.23563 8.60251L17.5 3.09264Z" fill="#1F1E29"/>
<path d="M14.875 -0.000488281C15.82 -0.000488281 16.6486 0.498262 17.1106 1.24814L8.75 6.82189L0.389375 1.24814C0.608764 0.891808 0.910187 0.593113 1.26849 0.376972C1.6268 0.16083 2.0316 0.0335109 2.44912 0.00563669L2.625 -0.000488281H14.875Z" fill="#1F1E29"/>
</g>
<defs>
<clipPath id="clip0_3532_106">
<rect width="17.5" height="14" fill="white" transform="translate(0 -0.000488281)"/>
</clipPath>
</defs>
</svg>
