<svg width="43" height="44" viewBox="0 0 43 44" fill="none" xmlns="http://www.w3.org/2000/svg">
<path d="M23.02 6.15942C23.02 5.1874 22.232 4.39942 21.26 4.39942C20.288 4.39942 19.5 5.1874 19.5 6.15942L23.02 6.15942ZM19.5 25.5194C19.5 26.4914 20.288 27.2794 21.26 27.2794C22.232 27.2794 23.02 26.4914 23.02 25.5194H19.5ZM29.5445 23.2439C30.2318 22.5566 30.2318 21.4422 29.5445 20.7549C28.8572 20.0676 27.7428 20.0676 27.0555 20.7549L29.5445 23.2439ZM22.5045 27.7949L21.26 26.5504L22.5045 27.7949ZM20.0155 27.7949L21.26 26.5504L21.26 26.5504L20.0155 27.7949ZM15.4645 20.7549C14.7772 20.0676 13.6628 20.0676 12.9755 20.7549C12.2882 21.4422 12.2882 22.5566 12.9755 23.2439L15.4645 20.7549ZM7.18 29.0394C7.18 28.0674 6.39202 27.2794 5.42 27.2794C4.44798 27.2794 3.66 28.0674 3.66 29.0394H7.18ZM38.86 29.0394C38.86 28.0674 38.072 27.2794 37.1 27.2794C36.128 27.2794 35.34 28.0674 35.34 29.0394H38.86ZM34.2171 37.2639L33.418 35.6958H33.418L34.2171 37.2639ZM36.5245 34.9565L38.0927 35.7555L36.5245 34.9565ZM5.99548 34.9565L4.42731 35.7555L5.99548 34.9565ZM8.30293 37.2639L7.50391 38.8321L7.50391 38.8321L8.30293 37.2639ZM19.5 6.15942L19.5 25.5194H23.02L23.02 6.15942L19.5 6.15942ZM27.0555 20.7549L21.26 26.5504L23.749 29.0394L29.5445 23.2439L27.0555 20.7549ZM21.26 26.5504L15.4645 20.7549L12.9755 23.2439L18.771 29.0394L21.26 26.5504ZM21.26 26.5504L21.26 26.5504L18.771 29.0394C20.1456 30.4141 22.3744 30.4141 23.749 29.0394L21.26 26.5504ZM3.66 29.0394V29.3914H7.18V29.0394H3.66ZM13.868 39.5994H28.652V36.0794H13.868V39.5994ZM38.86 29.3914V29.0394H35.34V29.3914H38.86ZM28.652 39.5994C30.1015 39.5994 31.2945 39.6008 32.2632 39.5216C33.2525 39.4408 34.1619 39.2673 35.0161 38.8321L33.418 35.6958C33.1428 35.836 32.7482 35.9503 31.9766 36.0133C31.1844 36.0781 30.1596 36.0794 28.652 36.0794V39.5994ZM35.34 29.3914C35.34 30.899 35.3386 31.9238 35.2739 32.716C35.2109 33.4876 35.0966 33.8822 34.9563 34.1575L38.0927 35.7555C38.5279 34.9013 38.7014 33.9919 38.7822 33.0026C38.8614 32.0339 38.86 30.8409 38.86 29.3914H35.34ZM35.0161 38.8321C36.3408 38.1572 37.4177 37.0802 38.0927 35.7555L34.9563 34.1575C34.6189 34.8198 34.0804 35.3583 33.418 35.6958L35.0161 38.8321ZM3.66 29.3914C3.66 30.8409 3.65863 32.0339 3.73778 33.0026C3.81861 33.9919 3.99208 34.9013 4.42731 35.7555L7.56366 34.1575C7.4234 33.8822 7.30913 33.4876 7.24609 32.716C7.18137 31.9238 7.18 30.899 7.18 29.3914H3.66ZM13.868 36.0794C12.3604 36.0794 11.3356 36.0781 10.5434 36.0133C9.77181 35.9503 9.37721 35.836 9.10195 35.6958L7.50391 38.8321C8.3581 39.2673 9.26749 39.4408 10.2568 39.5216C11.2255 39.6008 12.4185 39.5994 13.868 39.5994V36.0794ZM4.42731 35.7555C5.10226 37.0802 6.17925 38.1572 7.50391 38.8321L9.10195 35.6958C8.43962 35.3583 7.90113 34.8198 7.56366 34.1575L4.42731 35.7555Z" fill="white"/>
</svg>
