<svg width="48" height="48" viewBox="0 0 48 48" fill="none" xmlns="http://www.w3.org/2000/svg">
<path d="M34.9952 33.4371L33.8746 34.4343C34.1593 34.7541 34.567 34.9371 34.9952 34.9371C35.4234 34.9371 35.8311 34.7541 36.1158 34.4343L34.9952 33.4371ZM28.8849 38.4329L30.0514 37.4898L30.0514 37.4898L28.8849 38.4329ZM41.1055 38.4329L39.939 37.4898L39.939 37.4898L41.1055 38.4329ZM34.6305 43.8026L35.6028 42.6604L34.6305 43.8026ZM34.8951 43.9861L34.4817 45.428L34.4817 45.428L34.8951 43.9861ZM35.3599 43.8026L34.3876 42.6604L34.3876 42.6604L35.3599 43.8026ZM35.0953 43.9861L35.5087 45.428L35.0953 43.9861ZM6.5 40C6.5 40.8284 7.17157 41.5 8 41.5C8.82843 41.5 9.5 40.8284 9.5 40H6.5ZM36.1158 32.44C34.2686 30.3642 31.0294 29.6912 28.5563 31.7223L30.4603 34.0406C31.4943 33.1914 32.9227 33.3645 33.8746 34.4343L36.1158 32.44ZM28.5563 31.7223C26.1819 33.6724 25.8106 37.0161 27.7185 39.3759L30.0514 37.4898C29.2051 36.443 29.3276 34.9709 30.4603 34.0406L28.5563 31.7223ZM42.2719 39.3759C44.1658 37.0334 43.8596 33.6599 41.4184 31.7095L39.5458 34.0534C40.672 34.9531 40.7993 36.4257 39.939 37.4898L42.2719 39.3759ZM41.4184 31.7095C38.9309 29.7222 35.7328 30.3519 33.8746 32.44L36.1158 34.4343C37.0567 33.3768 38.466 33.1907 39.5458 34.0534L41.4184 31.7095ZM27.7185 39.3759C28.3754 40.1885 29.6148 41.3643 30.7533 42.3972C31.9214 43.457 33.085 44.4569 33.6582 44.9448L35.6028 42.6604C35.0403 42.1816 33.9036 41.2047 32.7691 40.1754C31.605 39.1192 30.5394 38.0934 30.0514 37.4898L27.7185 39.3759ZM36.3323 44.9448C36.9054 44.4569 38.069 43.457 39.2371 42.3972C40.3756 41.3643 41.615 40.1885 42.2719 39.3759L39.939 37.4898C39.451 38.0934 38.3854 39.1192 37.2213 40.1754C36.0868 41.2047 34.9501 42.1816 34.3876 42.6604L36.3323 44.9448ZM33.6582 44.9448C33.704 44.9838 33.8032 45.0697 33.9032 45.142C34.0216 45.2278 34.2156 45.3517 34.4817 45.428L35.3086 42.5442C35.5006 42.5993 35.6258 42.6855 35.6622 42.7118C35.6784 42.7236 35.6838 42.7286 35.6697 42.7169C35.6554 42.7051 35.6371 42.6896 35.6028 42.6604L33.6582 44.9448ZM34.3876 42.6604C34.3533 42.6896 34.335 42.7051 34.3208 42.7169C34.3067 42.7286 34.312 42.7236 34.3282 42.7118C34.3646 42.6855 34.4898 42.5993 34.6818 42.5442L35.5087 45.428C35.7749 45.3517 35.9688 45.2278 36.0873 45.142C36.1872 45.0697 36.2864 44.9838 36.3323 44.9448L34.3876 42.6604ZM34.4817 45.428C34.8166 45.524 35.1739 45.524 35.5087 45.428L34.6818 42.5442C34.8873 42.4853 35.1031 42.4853 35.3086 42.5442L34.4817 45.428ZM32.5 18C32.5 22.6944 28.6944 26.5 24 26.5V29.5C30.3513 29.5 35.5 24.3513 35.5 18H32.5ZM24 26.5C19.3056 26.5 15.5 22.6944 15.5 18H12.5C12.5 24.3513 17.6487 29.5 24 29.5V26.5ZM15.5 18C15.5 13.3056 19.3056 9.5 24 9.5V6.5C17.6487 6.5 12.5 11.6487 12.5 18H15.5ZM24 9.5C28.6944 9.5 32.5 13.3056 32.5 18H35.5C35.5 11.6487 30.3513 6.5 24 6.5V9.5ZM9.5 40C9.5 37.2643 10.975 34.6732 13.5863 32.7147C16.198 30.7559 19.8749 29.5 24 29.5V26.5C19.2885 26.5 14.9654 27.9304 11.7863 30.3147C8.60672 32.6994 6.5 36.1083 6.5 40H9.5Z" fill="#57B43D"/>
</svg>
