<svg width="49" height="48" viewBox="0 0 49 48" fill="none" xmlns="http://www.w3.org/2000/svg">
<path d="M43.4393 39.0607C44.0251 39.6464 44.9749 39.6464 45.5607 39.0607C46.1464 38.4749 46.1464 37.5251 45.5607 36.9393L43.4393 39.0607ZM4.5 12.5C3.67157 12.5 3 13.1716 3 14C3 14.8284 3.67157 15.5 4.5 15.5L4.5 12.5ZM16.5 15.5C17.3284 15.5 18 14.8284 18 14C18 13.1716 17.3284 12.5 16.5 12.5L16.5 15.5ZM4.5 22.5C3.67157 22.5 3 23.1716 3 24C3 24.8284 3.67157 25.5 4.5 25.5L4.5 22.5ZM12.5 25.5C13.3284 25.5 14 24.8284 14 24C14 23.1716 13.3284 22.5 12.5 22.5L12.5 25.5ZM4.5 32.5C3.67157 32.5 3 33.1716 3 34C3 34.8284 3.67157 35.5 4.5 35.5L4.5 32.5ZM16.5 35.5C17.3284 35.5 18 34.8284 18 34C18 33.1716 17.3284 32.5 16.5 32.5L16.5 35.5ZM38.7647 23.8824C38.7647 28.5118 35.0118 32.2647 30.3824 32.2647V35.2647C36.6687 35.2647 41.7647 30.1687 41.7647 23.8824H38.7647ZM30.3824 32.2647C25.7529 32.2647 22 28.5118 22 23.8824H19C19 30.1687 24.0961 35.2647 30.3824 35.2647V32.2647ZM22 23.8824C22 19.2529 25.7529 15.5 30.3824 15.5V12.5C24.0961 12.5 19 17.5961 19 23.8824H22ZM30.3824 15.5C35.0118 15.5 38.7647 19.2529 38.7647 23.8824H41.7647C41.7647 17.5961 36.6687 12.5 30.3824 12.5V15.5ZM36.3805 32.0018L43.4393 39.0607L45.5607 36.9393L38.5018 29.8805L36.3805 32.0018ZM4.5 15.5L16.5 15.5L16.5 12.5L4.5 12.5L4.5 15.5ZM4.5 25.5L12.5 25.5L12.5 22.5L4.5 22.5L4.5 25.5ZM4.5 35.5L16.5 35.5L16.5 32.5L4.5 32.5L4.5 35.5Z" fill="#57B43D"/>
</svg>
