<svg width="49" height="48" viewBox="0 0 49 48" fill="none" xmlns="http://www.w3.org/2000/svg">
<path d="M30.3466 14.1763L26.2217 6.99594C25.4558 5.66272 23.5347 5.65634 22.76 6.98444L18.4073 14.4462C17.8308 15.4345 16.8586 16.1286 15.7366 16.353L9.78919 17.5425C8.24883 17.8506 7.64861 19.7328 8.72625 20.8757L13.0279 25.4381C13.9478 26.4137 14.3176 27.7852 14.0129 29.091L12.0658 37.4356C11.6656 39.151 13.5178 40.5086 15.0331 39.6107L22.4616 35.2086C23.7189 34.4635 25.2826 34.4635 26.54 35.2086L33.9684 39.6107C35.4838 40.5086 37.336 39.151 36.9357 37.4356L34.9716 29.018C34.6763 27.7526 35.0141 26.4227 35.8773 25.4516L40.1843 20.6063C41.2105 19.4518 40.5963 17.6193 39.0817 17.3164L33.0306 16.1062C31.8995 15.88 30.9212 15.1765 30.3466 14.1763Z" stroke="#57B43D" stroke-width="3" stroke-miterlimit="10"/>
</svg>
