<svg width="49" height="48" viewBox="0 0 49 48" fill="none" xmlns="http://www.w3.org/2000/svg">
<path d="M18.5007 7.5166C18.5007 5.57443 20.0751 4 22.0173 4H26.984C28.9262 4 30.5007 5.57444 30.5007 7.51662C30.5007 10.2237 33.4312 11.9156 35.7756 10.5621C37.4576 9.59097 39.6085 10.1672 40.5796 11.8492L43.0629 16.1505C44.034 17.8325 43.4577 19.9832 41.7757 20.9543C39.4313 22.3079 39.4313 25.6918 41.7757 27.0454C43.4577 28.0165 44.034 30.1672 43.0629 31.8492L40.5796 36.1505C39.6085 37.8325 37.4577 38.4088 35.7757 37.4377C33.4312 36.0841 30.5007 37.7761 30.5007 40.4833C30.5007 42.4255 28.9262 44 26.9839 44H22.0174C20.0751 44 18.5007 42.4255 18.5007 40.4833C18.5007 37.7762 15.5701 36.0841 13.2257 37.4377C11.5437 38.4088 9.39297 37.8325 8.42188 36.1505L5.93853 31.8492C4.96743 30.1672 5.54372 28.0165 7.22572 27.0454C9.57016 25.6918 9.57016 22.3079 7.22572 20.9543C5.54372 19.9832 4.96743 17.8325 5.93853 16.1505L8.42188 11.8492C9.39297 10.1672 11.5437 9.59095 13.2257 10.562C15.5701 11.9156 18.5007 10.2237 18.5007 7.5166Z" stroke="#57B43D" stroke-width="3"/>
<path d="M32.5007 24C32.5007 28.4183 28.9189 32 24.5007 32C20.0824 32 16.5007 28.4183 16.5007 24C16.5007 19.5817 20.0824 16 24.5007 16C28.9189 16 32.5007 19.5817 32.5007 24Z" stroke="#57B43D" stroke-width="3"/>
</svg>
