<svg width="687" height="437" viewBox="0 0 687 437" fill="none" xmlns="http://www.w3.org/2000/svg">
<path fill-rule="evenodd" clip-rule="evenodd" d="M312.43 202.881C312.228 202.982 311.838 203.133 311.838 203.133C310.667 200.25 308.262 200.489 306.322 200.489C305.781 198.789 305.252 197.454 304.849 196.031C304.662 195.396 304.735 194.712 305.051 194.13C306.662 190.78 306.373 187.456 305.491 184.018C307.305 181.348 309.924 182.205 312.279 182.255C314.482 182.255 316.736 182.671 318.94 182.872C319.381 182.922 320.25 182.746 320.25 182.608C320.502 180.152 321.32 177.357 320.539 175.342C319.796 173.39 318.21 170.985 315.414 170.821C314.973 170.796 314.684 169.663 313.84 168.391C316.245 168.139 318.109 167.925 320.136 167.698C320.071 166.96 319.974 166.225 319.847 165.495C320.187 165.394 320.489 165.155 320.728 165.268C321.834 165.672 323.055 165.624 324.125 165.133C325.195 164.643 326.029 163.75 326.445 162.649C326.634 162.158 327.125 161.818 327.478 161.389C328.41 160.382 329.833 159.526 330.122 158.38C331.155 154.262 334.378 153.897 337.199 153.28C338.962 152.915 339.164 152.398 338.773 150.912C338.383 149.364 337.791 147.84 337.791 146.278C337.69 142.753 338.521 141.77 341.934 140.587C342.035 142.01 342.173 143.483 342.324 144.906C342.576 144.906 342.815 144.906 343.105 144.956C342.715 145.586 342.274 146.228 341.833 147.021C342.412 147.701 343.055 148.495 343.697 149.225C341.632 145.938 345.309 146.241 345.8 145.158C344.515 141.67 343.294 138.484 342.022 135.059C340.738 136.33 339.541 137.653 338.269 138.811C336.658 140.259 333.547 139.579 332.515 137.539C332.263 137.023 332.653 136.167 332.754 135.26C331.331 134.819 331.331 133.976 332.704 133.107C332.212 131.495 331.721 130.009 331.331 128.498C330.349 124.481 333.484 123.398 335.6 121.534C336.318 120.842 336.746 119.847 337.64 119.381C338.37 118.865 339.164 118.474 339.743 117.807C341.04 116.384 342.11 114.81 343.243 113.274C343.648 112.688 343.872 111.996 343.886 111.284C343.596 108.614 345.208 106.914 346.329 104.912C346.971 103.88 347.412 102.734 347.802 101.55C347.852 101.374 347.21 100.694 346.92 100.694C346.278 100.744 345.649 101.084 344.818 101.323C346.089 99.2583 347.172 97.3946 348.293 95.5813L348.683 95.7324V97.5457L353.267 92.1561C353.607 92.3324 354.199 92.9243 354.879 93.0376C356.919 93.428 356.919 90.9095 358.241 90.1413C358.581 89.9398 358.631 89.1088 359.022 88.9702C360.546 88.328 362.107 87.7865 364.122 87.0562L365.482 88.7184C366.023 88.1769 366.766 87.4843 367.446 86.7288C367.786 87.3962 368.139 88.0258 368.466 88.6176C370.267 86.9554 371.69 89.1591 373.868 89.9147C372.71 90.8213 371.891 91.5013 371.048 92.1435C371.087 92.3212 371.104 92.5031 371.098 92.685C372.219 92.4835 373.377 92.1435 374.46 92.0932C375.153 92.0176 376.273 92.3198 376.311 92.6095C376.601 94.5991 377.936 93.7554 378.968 93.9568C380.63 94.2968 382.356 94.7376 383.867 95.5309C386.209 96.765 388.501 98.1501 390.641 99.8501C391.561 100.631 392.644 102.495 392.404 103.477C392.014 104.95 390.553 107.103 389.445 107.154C386.511 107.28 383.489 106.423 380.542 105.932C380.102 105.882 379.711 105.643 379.082 105.68C382.607 107.053 382.217 110.78 383.401 113.576C384.081 115.238 387.153 116.321 388.513 115.238C387.053 114.231 384.27 114.067 386.07 110.705C387.481 111.448 388.954 112.178 390.465 112.808C390.805 112.984 391.397 113.034 391.687 112.833C391.888 112.644 391.938 111.763 391.787 111.586C390.276 110.188 390.818 108.816 391.888 107.683C393.172 106.386 394.205 104.257 396.497 105.403C396.749 105.479 396.988 105.58 397.189 105.63C397.29 105.63 397.341 105.529 397.882 105.24C397.001 102.18 396.107 99.019 395.225 95.8205C397.189 95.8961 399.784 95.3294 400.866 98.8679C400.122 99.3829 399.387 99.9118 398.663 100.455C399.343 101.197 399.784 102.217 400.325 102.293C401.206 102.343 402.705 102.003 402.894 101.412C404.027 98.276 406.357 96.6138 408.812 94.9894C409.996 94.1331 411.167 93.1761 412.64 92.0932C412.64 95.2287 413.472 95.5057 415.524 93.9568C416.947 92.8361 418.886 92.4332 420.901 91.6021C421.153 92.3702 421.443 93.1761 421.732 93.9568C422.274 93.1761 422.878 92.4332 423.76 91.2117C422.274 90.028 420.851 88.731 419.314 87.6984C417.627 86.6532 417.438 86.3258 418.508 84.2481C420.8 86.968 423.81 86.8547 426.794 87.4088C430.371 88.0888 433.657 90.368 437.019 91.8917C437.12 90.985 435.345 88.1139 434.098 88.2147C431.945 88.3658 432.285 86.5021 431.794 85.331C431.454 84.4495 431.693 83.1274 431.101 82.5859C429.539 80.8733 430.031 79.4755 430.899 77.637C431.441 76.5541 431.101 75.0178 431.101 73.7082C431.151 72.4238 431.101 71.1519 431.101 69.7416L432.285 69.666C437.309 69.2757 437.712 69.7164 438.039 75.1311C438.09 76.2015 438.971 77.2215 439.437 78.2667C440.369 80.5207 441.162 82.7748 442.132 84.9658C442.913 86.5525 443.996 87.9251 444.789 89.4991C446.35 92.2443 445.96 95.1153 444.94 97.8857C444.6 98.8175 443.706 99.4975 443.215 100.165C443.656 100.19 444.739 100.341 446.061 100.48C446.552 98.7923 446.993 96.9538 447.584 95.2287C448.227 93.4657 448.227 92.0176 446.804 90.6702C446.514 90.4184 446.854 89.0962 447.194 88.4665C447.584 87.8243 448.378 87.4214 449.297 86.6532C448.516 86.6029 448.025 86.4014 447.736 86.5525C444.751 88.1265 444.109 87.9251 443.416 84.2984C442.824 81.654 442.636 79.0474 440.18 77.4356C439.639 77.0956 439.689 75.4208 439.79 74.3882C439.941 72.726 440.382 71.1016 440.772 69.0994C441.263 70.1823 441.792 71.5045 442.233 72.8267C442.925 74.8415 443.416 76.9948 446.111 76.5541C445.091 75.5719 444.059 74.5897 443.127 73.6704C443.517 72.386 445.293 71.9579 444.008 70.5223C444.65 69.9431 445.469 68.7342 445.859 68.9105C447.824 69.6031 449.587 70.749 451.551 71.5297C452.659 71.9201 453.881 71.8949 455.001 72.0838L455.152 71.4038C453.427 70.6231 451.35 70.2327 450.078 68.9231C448.718 67.4246 448.025 65.095 447.043 63.0676C450.229 61.5943 453.15 60.2721 456.223 58.8995C454.384 57.4262 452.722 56.1795 450.821 54.7314C453.73 51.5707 456.512 48.5989 459.459 45.3626C459.258 44.456 459.358 43.1337 461.411 42.9197C461.801 42.9197 462.192 42.1138 462.645 41.8367C463.186 41.5471 463.778 41.4715 464.37 41.2953C464.471 41.8115 464.609 42.3278 464.698 42.8441C466.612 42.479 467.594 41.2449 467.015 39.5575C467.355 39.4442 467.707 39.2427 468.047 39.1671C468.752 38.9909 469.483 38.8775 470.125 38.7516C467.657 36.2961 466.914 32.0776 468.652 29.2443C468.903 28.8036 469.684 28.3125 470.075 28.4132C471.309 28.7532 472.946 28.2621 473.575 30.1761C473.827 30.8183 474.809 31.6998 475.25 31.5487C477.504 30.8561 477.693 32.1279 477.554 33.9161C477.554 34.4827 477.756 34.999 477.844 35.5657H478.537L478.877 32.8709C478.726 32.9213 479.028 32.8709 479.267 32.6694C481.861 30.5665 484.216 31.5235 486.936 32.9213C488.862 33.9539 490.348 34.9865 491.469 36.9886C492.879 39.6331 491.948 41.9878 491.268 44.4937C490.827 46.2063 490.436 47.9189 489.983 49.6189C489.526 51.2158 489.009 52.7951 488.434 54.3536L489.051 54.8699C490.336 53.5225 491.708 52.2003 492.829 50.9914C492.253 50.6475 491.682 50.2949 491.116 49.9337C491.847 49.0522 492.577 48.1455 493.068 47.5789C494.302 48.3848 494.982 48.8633 495.662 49.3418L496.645 47.6293C497.085 47.9189 497.677 48.3974 497.879 48.5611C500.813 47.7048 503.432 46.9493 506.265 46.1559C506.756 47.7678 506.467 50.4248 508.809 48.2211C508.96 48.0952 509.35 48.07 509.451 48.1707C511.554 50.2737 512.927 47.8307 514.312 47.4782C514.06 45.5641 513.871 43.8012 513.67 42.3782C515.621 42.5797 517.447 43.0204 519.185 42.8693C521.968 42.6678 524.172 44.393 525.834 46.8863C527.597 49.7322 530.153 51.9862 532.445 54.4418C532.735 54.7314 533.528 54.5929 534.057 54.6432C534.132 54.001 534.321 53.3336 534.183 52.7796C533.83 51.407 533.339 50.1351 532.697 48.07C533.83 48.9011 534.334 49.4426 534.926 49.6566C536.16 50.1225 537.431 50.8151 538.212 48.8885C538.423 48.5381 538.741 48.2644 539.119 48.1078C541.285 47.5159 543.438 47.0626 545.982 46.4456C544.811 45.3122 543.539 44.4308 542.846 43.1589C542.456 42.416 543.098 41.0308 543.237 39.9227L543.98 39.9479C543.388 39.633 542.796 39.3434 541.965 38.8775C542.406 38.5627 542.657 38.2605 542.846 38.2353C546.271 38.1094 549.709 38.059 553.222 37.8953C553.751 37.8701 554.242 37.379 554.859 37.3286C556.484 37.1649 558.146 36.9886 559.77 37.0894C560.161 37.0894 560.413 38.4116 560.904 39.633C561.722 39.5827 563.107 41.0056 565.059 40.4012C565.941 40.1368 567.351 41.7486 568.774 42.6804C570.184 41.799 571.884 40.5271 573.698 39.6079C578.659 37.1398 581.933 38.7012 583.835 44.4434C585.612 44.5089 587.375 44.1049 588.947 43.2723C591.315 41.8493 594.097 41.3582 596.893 40.4012C596.893 40.036 596.742 39.3938 596.994 38.9027C597.334 38.1597 597.875 37.5301 598.316 36.8627C598.857 37.5427 599.928 38.4745 599.789 38.9279C599.097 40.9679 600.142 41.1819 601.577 41.4967C602.408 41.6478 603.101 42.479 604.071 43.1967C604.436 42.9701 604.927 42.5797 605.72 41.9878C604.839 40.9175 604.171 39.3434 603.252 39.1419C600.885 38.6005 601.388 36.5227 600.696 35.2131C603.441 34.4324 606.073 33.3242 608.717 33.1102C611.802 32.9087 614.9 33.4502 618.01 33.7902C620.655 34.1302 623.274 34.722 625.881 35.1124C627.341 35.2887 628.916 34.9865 630.301 35.3642C631.421 35.6539 632.454 36.5857 633.751 37.3664C635.703 33.0598 639.266 34.722 642.692 35.7546C641.999 37.8197 645.991 40.0738 641.961 42.5293C644.845 43.4611 643.674 47.1885 646.318 47.9189C645.991 48.6996 645.84 49.984 645.298 50.1729C644.014 50.6892 642.591 50.7648 641.231 50.8655C640.841 50.9159 640.299 50.6389 640.047 50.324C638.385 48.1204 637.403 48.8255 636.635 51.1048C636.484 51.4448 636.144 51.7218 635.804 52.1877C634.821 51.4448 633.952 50.7648 632.983 50.0848C632.24 51.1551 632.24 52.1499 633.449 52.3892C635.602 52.8299 636.043 54.6181 635.942 56.2928C635.791 58.3958 636.975 61.5187 632.983 61.6572C637.491 64.8935 642.188 67.2735 643.724 73.7712C637.453 71.9578 637.038 77.3474 635.602 80.8733C634.469 83.5681 634.519 86.8043 634.091 89.965C632.744 89.4487 630.968 88.0006 629.646 88.391C628.324 88.731 627.43 90.9724 626.359 92.4332C626.158 92.1435 625.767 91.451 625.616 91.2873C624.684 91.9672 623.753 92.4835 622.959 93.2265C622.632 93.5161 622.279 94.2087 622.33 94.6494C622.67 97.1553 623.06 99.5983 623.501 102.054C623.551 102.495 623.753 102.885 623.942 103.401C626.309 102.721 627.329 103.401 627.127 106.323C627.127 107.33 628.651 108.426 629.495 109.458C630.956 111.297 630.137 111.863 627.631 111.813C628.513 113.677 629.054 115.288 629.948 116.661C630.817 117.983 631.358 118.814 629.507 119.658C627.543 120.539 628.034 122.403 628.424 124.028C628.626 124.632 629.117 125.148 629.608 125.916C627.644 126.722 627.341 127.906 628.084 130.148C628.626 131.772 627.593 133.976 627.253 135.915L626.473 136.079C625.791 135.05 625.136 134.005 624.508 132.943C622.556 129.606 620.466 126.319 618.602 122.844C617.238 120.259 616.084 117.568 615.152 114.797C614.762 113.5 615.152 111.888 615.152 110.44C615.152 109.282 615.051 108.136 614.951 106.449C616.172 105.592 617.028 103.867 616.928 101.374C616.827 98.2886 617.179 95.1783 617.469 92.0554C617.62 90.6072 619.723 89.8517 618.791 87.8873C618.25 86.7414 617.809 85.5829 617.268 84.3614L616.928 79.8533C616.21 80.1177 615.618 80.3948 614.258 80.9363C615.53 82.3592 616.411 83.291 617.368 84.2732C616.978 84.9155 616.562 85.5073 616.21 86.0866C615.958 86.5777 615.719 87.0436 615.618 87.5599C615.278 88.8821 615.039 90.2295 614.749 91.6021L613.817 91.8665L610.934 87.0436C610.102 87.2702 608.667 87.5599 607.307 88.0888C606.715 88.3532 605.985 89.1717 605.884 89.8013C605.544 92.2065 605.443 94.7124 605.242 97.1553C605.242 97.7849 605.393 98.5027 605.443 99.1071C606.325 99.4219 607.017 99.699 607.748 99.9886C607.798 100.19 607.798 100.429 607.848 100.681C606.035 101.827 604.197 103.036 602.295 104.018C602.194 104.094 601.414 102.797 600.923 102.104C601.023 101.903 601.174 101.714 601.313 101.512C599.777 101.412 598.253 101.26 596.528 101.147C596.377 101.903 596.276 102.646 596.137 103.514C595.848 103.514 595.457 103.464 595.117 103.565C592.083 104.396 589.035 105.177 586.013 106.209C585.32 106.411 584.691 107.481 584.489 108.337C584.011 110.327 584.011 112.48 583.444 114.394C582.16 118.827 580.686 123.146 579.175 127.78H582.109C582.399 128.561 582.802 129.518 583.192 130.5C583.482 129.745 583.709 129.002 584.099 127.881C584.628 129.153 585.018 130.034 585.56 131.268C585.849 130.261 586.101 129.53 586.592 128.082C588.72 129.014 590.836 129.984 593.14 131.016C594.916 130.135 594.223 128.913 593.241 127.188C593.682 127.314 594.425 127.289 594.614 127.579C595.886 129.908 597.057 132.301 598.24 134.681C598.53 135.373 598.58 136.179 598.933 136.784C601.212 140.612 603.504 144.427 605.594 148.532C604.763 147.941 603.844 147.387 602.874 146.694C601.59 151.693 604.851 154.539 607.168 157.801C606.967 157.926 606.828 158.052 606.627 158.216C606.035 157.876 605.393 157.624 604.562 157.183C604.36 158.015 604.272 158.707 604.045 160.08C603.315 158.808 602.774 158.115 602.585 157.36C600.809 151.529 599.223 145.661 597.409 139.881C597.157 139 596.226 138.383 595.596 137.627C595.394 137.678 595.155 137.779 594.903 137.829C595.294 140.007 595.495 142.337 596.263 144.352C597.636 147.978 597.246 151.454 596.654 155.169C595.961 159.803 594.211 163.996 592.725 168.303C592.624 168.693 592.385 169.083 592.234 169.449C590.622 172.483 589.3 172.899 586.68 171.274C585.849 172.269 584.955 173.201 584.288 174.309C583.847 175.052 583.281 176.123 583.482 176.752C584.389 179.308 583.092 180.87 581.618 182.255C580.296 183.615 580.435 184.408 581.82 185.68C584.641 188.199 586.806 191.259 587.436 195.339C587.801 197.253 586.693 198.625 584.93 198.965C583.86 199.167 582.802 199.796 581.429 200.388C581.278 199.016 581.228 197.593 580.989 196.17C580.838 195.339 580.498 194.533 580.258 193.752C580.107 193.412 579.767 193.034 579.767 192.745C580.057 190.352 579.969 190.327 577.853 190.226C577.261 190.201 576.392 189.294 576.191 188.627C575.939 187.519 576.141 186.272 576.141 185.151C572.413 182.217 570.663 186.436 567.88 188.236L568.761 181.474C567.83 180.341 566.873 180.391 565.979 182.217C565.286 183.728 564.518 185.252 563.586 186.587C563.196 187.116 562.213 187.166 561.37 187.506C560.639 190.654 564.858 189.886 564.896 192.908C566.961 189.521 569.63 190.793 572.161 191.309C572.413 191.385 572.451 192.619 572.64 193.601C569.63 193.311 568.459 195.527 567.276 197.567C566.961 198.21 567.477 199.67 567.968 200.501C568.61 201.66 569.63 202.554 570.461 203.587C571.318 204.67 572.061 205.853 572.98 206.823C573.619 207.578 573.986 208.526 574.022 209.514C574.059 210.503 573.763 211.475 573.181 212.275C575.738 214.97 575.549 215.952 573.924 219.478C572.993 221.493 571.821 223.445 571.57 226.039C571.368 228.18 568.95 230.106 567.326 232.033C565.487 234.136 562.931 234.161 560.539 234.904C558.322 235.571 556.27 237.448 554.671 239.349C553.588 240.671 553.159 240.432 552.416 239.4C550.742 237.02 547.392 237.309 546.108 240.042C544.395 243.694 545.138 246.212 548.664 248.718C552.316 251.362 554.469 256.651 553.449 260.769C553.298 261.411 553.109 262.192 552.706 262.595C549.983 264.87 547.23 267.107 544.445 269.307L544.294 267.405C544.244 266.347 545.037 264.622 542.67 265.441C542.229 265.617 541.108 264.081 540.517 263.136C539.434 261.386 538.401 259.9 536.273 259.636C535.681 259.56 535.24 258.427 534.497 257.47C533.843 260.29 533.2 262.872 532.76 265.441C532.659 265.932 533.15 266.599 533.452 267.166C534.208 268.501 534.787 269.961 535.681 271.132C536.563 272.354 537.646 273.437 538.842 274.268C540.907 275.779 542.179 277.454 542.229 280.438C542.229 282.214 543.363 283.964 544.055 285.891C542.04 286.923 540.63 285.5 539.396 284.543C536.827 282.516 535.895 279.33 534.712 276.232C533.994 274.23 533.226 271.687 531.702 270.742C530.04 269.71 530.518 268.878 530.569 267.581C530.669 264.849 531.06 262.016 530.569 259.396C529.889 255.946 528.415 252.697 527.282 249.41C525.67 250.292 524.398 251.161 523.013 251.677C521.326 252.244 520.545 251.677 520.935 249.511C521.058 248.278 520.96 247.033 520.646 245.834C520.545 245.444 519.764 245.192 519.324 244.877C519.101 244.983 518.886 245.105 518.681 245.242V242.988C516.893 240.734 515.42 238.72 513.858 236.743C513.999 236.479 514.129 236.21 514.249 235.937C513.367 236.277 512.473 236.629 511.592 236.919C510.521 237.246 509.438 237.838 508.406 237.788C506.404 237.763 504.855 238.04 504.704 240.671C504.704 241.011 504.313 241.377 504.011 241.666C501.858 243.882 499.667 246.174 497.425 248.315C495.801 249.851 493.748 250.985 492.565 252.748C491.822 253.881 492.124 255.996 492.414 257.533C492.955 260.542 491.343 266.436 489.127 268.337C485.966 271.095 485.324 270.742 484.077 266.31C483.599 264.559 482.516 263.048 481.773 261.348C480.199 257.696 478.348 254.12 477.164 250.342C475.892 246.539 475.313 242.548 474.52 239.085C473.235 239.45 471.56 240.482 470.276 240.092C468.903 239.651 467.808 237.876 466.284 236.39C467.418 236.163 468.11 236.075 469.004 235.924C466.335 234.816 464.081 233.708 462.607 231.164C461.776 229.741 460.605 228.721 458.729 229.111C453.453 230.257 448.138 229.64 442.938 228.545C442.195 228.369 441.414 227.386 441.124 226.631C440.533 225.044 439.752 224.553 438.442 225.535C436.541 226.996 434.69 226.291 432.977 225.246C430.421 223.646 427.676 222.249 426.442 218.912C425.812 217.061 424.188 217.791 423.017 218.131C422.752 218.181 422.601 220.246 423.067 220.939C424.591 223.634 426.354 226.127 428.066 228.683C428.318 228.268 428.708 227.701 429.439 226.568C429.779 228.343 430.031 229.502 430.219 230.66C430.421 231.97 430.912 232.058 432.184 232.209C436.428 232.776 437.359 228.633 439.979 226.366C440.13 227.689 439.979 228.872 440.419 229.703C441.062 230.912 442.233 232.776 443.013 232.7C445.759 232.499 446.841 234.803 447.521 236.428C447.962 237.423 446.237 239.563 445.456 241.175C444.927 242.208 444.336 243.19 443.454 244.827C442.321 245.91 440.759 247.748 438.87 249.272C437.939 250.015 436.516 250.015 435.445 250.594C434.539 251.035 433.846 251.879 433.078 252.521C432.587 252.911 432.096 253.377 431.554 253.679C428.469 255.127 425.334 256.664 422.173 257.948C419.617 258.981 416.897 259.699 414.303 260.542C414.353 260.253 414.554 259.988 414.504 259.812C412.64 255.392 413.421 249.826 409.505 246.3C409.215 246.036 409.115 245.394 408.812 244.991C408.17 243.996 407.578 242.787 406.659 242.145C404.959 240.948 404.279 239.4 403.977 237.334C403.775 235.924 403.385 233.783 402.516 233.33C399.985 231.957 399.784 229.112 398.272 227.223C397.189 225.938 396.358 224.402 395.414 222.929L393.21 224.037C393.261 228.331 397.479 230.673 397.328 235.043C397.278 235.244 397.58 235.559 397.769 235.634C401.005 236.957 400.753 240.218 401.395 243.014C401.597 243.996 402.252 244.865 402.743 245.734C403.662 247.333 404.644 248.919 405.626 250.493C406.432 251.677 407.163 252.886 408.044 253.919C410.059 256.185 412.212 258.339 414.277 260.479C414.026 262.343 415.096 263.476 416.229 264.446C416.62 264.786 417.363 264.887 417.904 264.786C420.574 264.181 423.193 263.476 425.85 262.859C426.87 262.595 428.104 262.595 429.036 262.028C431.29 260.58 431.391 261.953 431.239 263.829C431.139 264.975 431.189 266.297 430.648 267.241C427.663 272.757 425.8 279.041 420.876 283.272C416.632 286.949 412.565 290.94 408.787 295.146C407.213 296.922 406.483 299.566 405.425 301.77C405.324 301.921 405.223 302.211 405.274 302.261C407.352 304.616 405.563 307.751 406.722 310.257C406.911 310.635 406.961 311.076 407.2 311.428C407.641 312.171 408.674 312.952 408.573 313.493C407.83 317.296 409.606 321.389 407.49 324.915C406.76 326.212 405.463 327.194 404.279 328.151C401.841 330.215 399.311 332.169 396.698 334.007C395.464 334.863 395.565 335.681 395.767 336.928C396.056 338.955 396.157 341.021 396.358 343.098C396.648 345.516 395.175 346.385 393.424 346.926C391.699 347.418 390.578 347.833 390.679 350.452C390.691 351.711 390.432 352.957 389.919 354.107C389.406 355.256 388.652 356.282 387.707 357.114C385.428 359.229 383.854 362.188 381.751 364.619C378.716 368.132 374.989 369.92 370.355 369.58C368.516 369.479 366.653 370.273 364.839 370.411C363.077 370.562 361.263 370.361 359.4 370.26C359.349 365.034 359.11 360.161 356.528 356.585C353.733 352.568 353.003 348.123 352.436 343.564C351.945 339.119 349.792 335.543 348.066 331.677C347.626 330.745 347.084 329.713 347.084 328.743C347.286 324.474 347.865 320.407 350.912 317.12C351.504 316.478 351.655 314.954 351.605 313.884C351.403 311.819 351.214 309.716 350.572 307.852C349.2 303.974 348.658 299.642 345.233 296.922C344.443 296.199 343.749 295.378 343.168 294.479C342.186 292.829 341.304 291.23 342.337 289.026C343.118 287.364 343.369 285.4 343.76 283.523C344.289 280.678 342.286 278.411 339.667 279.003C336.922 279.62 334.592 279.796 333.56 275.981C333.018 274.104 330.374 273.777 327.377 274.809C325.954 275.301 324.682 276.169 323.284 276.686C321.471 277.378 319.809 277.97 317.668 277.542C315.313 277.051 312.669 277.492 310.314 278.235C308.602 278.776 307.204 278.927 305.731 277.844C303.162 276.006 300.555 274.268 298.15 272.253C297.353 271.454 296.779 270.46 296.488 269.37C295.455 265.793 292.71 263.93 290.33 261.676C289.159 260.542 288.265 259.573 288.567 257.608C288.668 256.676 287.988 255.556 287.635 254.447C289.209 251.287 290.771 248.101 289.65 244.084C289.31 242.762 289.751 241.276 288.466 240.155C288.177 239.865 288.416 238.405 288.806 237.75C291.136 233.821 292.949 229.615 295.934 226.001C297.558 224.075 299.472 223.206 301.185 221.758C302.04 221.14 302.727 220.32 303.184 219.37C303.642 218.42 303.855 217.371 303.804 216.318C303.854 214.492 304.786 211.86 306.159 211.016C309.332 209.014 311.347 206.458 312.43 202.881C313.362 204.745 314.684 205.513 316.648 204.997C317.19 204.871 317.819 205.261 318.411 205.249C319.242 205.198 320.199 205.224 320.892 204.833C323.335 203.36 325.664 201.597 328.661 201.622C330.513 201.647 332.389 201.421 334.202 201.232C337.904 200.892 341.556 199.658 344.591 200.791C344.981 202.466 345.334 203.587 345.372 204.758C345.351 205.545 345.149 206.316 344.78 207.012C344.528 207.553 343.999 207.944 343.067 209.027C346.354 209.958 349.049 210.588 351.706 211.381C353.053 211.721 354.526 211.973 354.816 213.925C354.917 214.366 355.509 214.781 355.987 215.033C357.674 215.814 359.4 216.582 361.112 217.275C361.654 217.476 362.485 217.766 362.787 217.501C363.278 217.136 363.87 216.179 363.719 215.663C363.228 214.013 363.328 212.527 364.789 211.696C366.514 210.789 368.365 210.512 370.216 211.822C370.808 212.212 371.4 212.678 372.068 212.855C375.241 213.711 378.427 214.492 381.613 215.184C382.393 215.335 383.237 215.033 384.005 214.983C385.579 214.882 387.178 214.643 388.74 214.781C390.629 214.983 392.681 215.764 393.525 213.119C394.709 209.467 396.61 205.916 395.049 201.32C394.218 201.61 393.185 201.836 392.291 202.302C390.83 203.058 389.42 203.599 387.846 202.327C387.216 201.786 385.667 201.32 385.378 201.66C383.615 203.687 382.142 203.196 380.567 201.534C380.177 202.302 379.787 202.97 379.598 203.373C377.973 201.043 376.45 198.89 374.989 196.711C375.48 196.321 376.16 195.855 377.243 194.961C376.398 195.125 375.55 195.272 374.699 195.402C374.901 194.18 375.19 193.248 375.09 192.367C375.09 191.624 374.699 190.365 374.347 190.339C373.314 190.224 372.269 190.34 371.287 190.679C371.236 193.916 369.562 192.316 368.076 192.19C369.511 194.155 370.947 196.119 372.105 197.668C371.136 198.89 369.902 199.67 369.751 200.678C369.499 202.516 368.441 202.126 367.874 201.584C366.725 200.402 365.704 199.102 364.827 197.706C364.197 196.799 363.857 195.666 363.366 194.671C362.674 193.349 361.251 192.014 361.301 190.742C361.402 186.927 359.588 185.277 356.528 184.471C356.037 184.345 355.647 183.829 355.206 183.489C353.922 182.368 352.625 181.185 351.303 180.064C350.371 179.283 349.439 178.452 348.205 177.369C348.104 177.47 347.273 178.011 347.323 178.553C347.323 179.447 347.663 180.505 348.155 181.298C348.935 182.582 349.917 183.653 350.849 184.774C351.391 185.466 351.92 186.499 352.663 186.688C355.194 187.418 356.755 189.533 358.946 190.742C359.437 191.007 359.588 192.027 359.828 192.656C359.488 192.946 359.085 193.299 358.745 193.563C358.543 193.047 358.543 192.43 358.254 192.115C357.964 191.825 357.183 191.674 357.032 191.825C356.768 192.266 356.516 192.959 356.617 193.399C357.385 196.195 356.365 198.31 353.821 199.028C353.702 200.123 353.555 201.215 353.38 202.302L347.764 198.927C347.764 198.726 347.764 198.487 347.815 198.298C348.394 198.096 348.935 197.857 349.577 197.756C350.56 197.656 351.643 197.782 352.562 197.504C353.368 197.253 354.501 196.736 354.69 196.107C354.891 195.2 354.69 193.777 354.098 193.122C353.061 191.713 351.712 190.562 350.157 189.76C346.681 188.337 344.666 185.491 342.752 182.381C341.821 180.882 340.738 179.9 338.899 181.575C336.935 183.388 334.857 185.025 331.961 183.476C330.298 182.582 329.404 183.628 329.404 185.441C329.505 187.833 328.573 189.068 326.42 189.886C324.116 190.73 323.058 193.878 323.964 196.031C323.398 196.913 323.007 197.895 322.378 198.575C321.396 199.658 320.313 200.892 319.016 201.358C316.938 202.151 314.633 202.39 312.43 202.881ZM366.111 110.743C364.008 110.743 362.145 110.214 360.81 110.919C360.029 111.385 360.13 113.689 359.74 115.112C359.488 116.069 359.248 117.102 358.657 117.832C357.876 118.865 356.894 119.671 355.886 120.552C352.852 123.297 352.524 127.566 355.257 130.362C357.297 132.427 357.146 134.454 354.816 136.192C353.242 137.376 352.801 140.209 353.683 141.934C354.325 143.168 354.274 144.138 352.852 145.12C351.504 145.976 349.25 145.17 348.658 147.613C348.608 147.815 346.946 147.512 346.152 147.424C345.661 148.255 345.17 149.892 344.289 150.245C343.407 150.56 342.135 149.552 340.813 149.099C342.186 151.693 344.2 151.895 347.777 150.081L349.099 152.877C350.963 151.643 352.486 150.472 354.174 149.666C355.106 149.25 357.146 149.061 357.334 149.515C358.065 150.988 358.657 150.258 359.349 149.741C360.13 149.162 360.86 148.545 361.704 147.827C361.062 141.821 361.364 140.864 364.399 139.768L366.174 142.438C367.597 139.403 367.408 138.786 364.94 137.678L362.497 139.781C362.699 138.433 362.648 137.527 362.988 136.847C363.971 134.782 365.834 133.95 367.748 133.245C370.267 132.313 373.428 134.467 375.304 131.117C372.962 129.253 370.229 129.694 367.899 131.016C365.394 132.439 363.48 131.873 361.565 130.185C360.99 129.71 360.595 129.052 360.445 128.322C360.054 125.476 359.752 122.579 359.463 120.137C362.787 118.109 364.008 114.596 366.111 110.743ZM383.187 173.831C382.053 176.815 379.409 178.88 379.409 182.318C379.409 182.469 379.258 182.633 379.157 182.759C377.243 184.522 378.225 186.234 379.359 187.745C380.139 188.853 384.446 189.03 385.39 188.186C386.42 187.267 387.683 186.651 389.042 186.406C390.4 186.162 391.799 186.298 393.084 186.801C396.018 187.821 398.826 189.71 402.113 188.728C403.158 188.438 404.682 188.136 405.022 187.355C405.362 186.536 404.871 184.66 404.191 184.068C402.063 182.217 399.658 180.757 397.353 179.17C396.522 178.578 395.729 177.936 395.238 177.596C396.119 175.38 396.812 173.692 397.693 171.375C395.83 172.194 394.268 172.685 392.933 173.528C392.241 173.919 391.901 174.901 391.372 175.631C392.102 175.833 392.782 176.072 393.525 176.274C393.865 176.374 394.268 176.425 394.608 176.475C394.658 176.727 394.759 176.916 394.81 177.168C392.946 178.035 391.074 178.883 389.193 179.711C388.289 178.575 387.391 177.433 386.499 176.286L388.161 175.543C386.347 174.914 384.849 174.423 383.187 173.831ZM432.159 199.267C431.416 196.963 431.227 194.029 429.766 192.354C427.499 189.71 428.091 186.398 427.159 184.736C425.349 182.646 423.511 180.58 421.644 178.54C423.18 177.067 424.465 175.783 425.737 174.523C426.014 174.574 426.366 174.674 426.656 174.725C426.265 173.541 425.875 171.388 425.434 171.388C423.608 171.337 421.631 170.695 420.007 172.508C418.974 173.692 417.337 174.284 416.254 175.443C415.272 176.551 414.353 178.074 416.103 179.51C416.443 179.799 416.884 180.291 416.934 180.744C417.627 185.088 421.178 187.116 422.966 189.596C422.4 191.964 421.82 193.966 421.581 196.019C421.48 196.636 422.022 197.819 422.551 198.109C425.548 199.607 428.482 201.358 432.159 199.267ZM523.605 148.394C528.415 147.361 531.74 137.073 528.466 132.805C529.057 138.836 527.181 143.936 523.605 148.394ZM392.782 294.227C393.475 293.043 394.255 292.086 394.646 290.991C394.847 290.349 394.595 289.001 394.205 288.775C392.379 287.868 390.73 289.215 390.679 291.419L390.528 294.227H392.782ZM438.656 177.86C439.714 177.709 441.288 177.986 441.666 177.369C442.258 176.437 442.056 174.926 442.207 173.44C438.807 174.095 438.367 174.624 438.656 177.86ZM379.308 131.042C380.089 130.236 381.26 129.279 381.159 129.102C380.379 127.654 379.346 126.357 378.313 124.808C375.782 127.856 378.528 128.926 379.308 131.042ZM383.804 123.536C384.987 124.909 385.995 125.992 386.977 127.062C387.128 126.962 387.267 126.861 387.456 126.773C386.977 125.551 386.436 124.33 385.894 123.071C385.29 123.196 384.799 123.285 383.804 123.536ZM395.338 320.52C395.59 320.495 395.829 320.495 396.081 320.444C395.829 317.561 395.691 314.702 395.49 311.806C395.288 311.806 395.112 311.856 394.961 311.856C395.049 314.753 395.238 317.636 395.338 320.52ZM384.937 297.803C385.327 305.107 385.277 304.515 386.536 304.767C386.045 302.563 385.479 300.145 384.937 297.803ZM478.839 48.0952C477.265 48.4604 476.295 48.7122 475.212 48.9515C475.363 49.3922 475.552 50.0092 475.905 51.2055C476.975 50.0848 477.756 49.2663 478.839 48.0952ZM147.141 76.957C146.89 83.7444 151.31 84.6006 156.384 84.8525C157.266 83.6184 157.996 81.4274 160.426 82.0066L160.527 82.2081C161.018 82.9007 161.56 83.5807 162.34 84.8147C162.542 85.6458 159.696 86.3888 161.258 88.2399C161.799 86.4769 162.189 84.9281 164.406 84.714C165.287 84.6132 166.068 83.3918 167.1 82.5103L165.526 81.5281C166.269 80.5963 166.849 79.7777 167.239 79.2489C166.458 77.8007 164.884 76.2267 164.935 74.7156C164.985 72.7008 165.866 69.9934 167.239 68.9734C171.382 66.0898 172.175 61.2795 174.177 57.1617C175.008 55.4995 176.016 53.384 178.081 53.7366C179.945 54.0766 181.708 55.1343 183.42 55.9906C183.571 56.0914 183.521 57.4639 183.168 57.8795C181.976 59.4271 180.612 60.834 179.101 62.0728C178.358 62.652 177.086 62.3876 176.066 62.5135C176.406 62.8031 176.797 63.0676 177.137 63.3446L172.994 66.6313V76.4156C172.553 76.7807 171.671 77.5237 170.576 78.4052C171.873 79.0474 172.855 79.5637 173.686 79.9792L172.112 84.5377L172.402 84.7895C173.233 83.5681 174.026 82.334 175.008 80.9111C176.066 82.9762 176.998 84.5125 175.424 86.6532C174.706 87.5347 175.059 89.2976 174.958 90.645C175.298 90.771 175.726 90.8213 176.066 90.9346C176.406 89.6376 176.797 88.3532 177.288 86.4517C177.728 87.4088 177.88 87.8747 178.32 88.8569C178.95 85.5955 182.098 84.5881 182.148 81.3518C182.148 80.6844 183.181 80.0296 183.76 79.3874C182.287 78.6948 180.373 78.1785 179.051 76.9319C178.169 76.1259 178.119 74.2119 177.678 72.7638C177.88 72.6127 178.169 72.4741 178.358 72.323C179.29 72.7134 180.222 73.1541 181.154 73.5571C181.254 73.406 181.305 73.2423 181.405 73.066C180.814 72.726 180.222 72.2097 179.542 71.9956C177.88 71.4541 177.779 70.5223 178.56 68.9483C180.272 65.2713 182.577 62.1357 185.624 59.6802C187.802 57.9677 189.868 58.0684 192.185 60.0958C188.092 61.6824 186.442 65.2712 185.523 69.2882C185.322 70.0312 186.014 71.026 186.594 71.8949C186.342 69.9808 185.422 67.9534 188.18 67.4372C187.824 66.3403 187.899 65.1488 188.39 64.1054C188.882 63.062 189.752 62.2451 190.825 61.8209C194.376 60.2721 196.592 60.3728 197.473 62.2868C197.763 61.8713 197.964 61.3047 198.254 61.2039C200.861 60.6624 204.462 64.6794 203.694 67.4372C203.644 67.6638 202.964 67.689 202.523 67.8275C201.591 67.6764 200.609 67.2357 199.778 67.4372C197.524 68.0542 197.033 66.9209 196.932 64.8179C196.781 65.9261 196.592 67.2735 197.133 67.7897C197.662 68.3186 198.896 68.1297 199.828 68.1297C200.76 68.0794 201.641 67.9283 202.573 67.8401C203.253 69.2127 204.047 70.5349 204.664 72.0082C204.916 72.5623 204.714 73.3052 204.714 73.6452C205.747 74.1615 207.258 74.4511 207.95 75.3578C209.537 77.3978 210.771 79.7022 212.194 82.0948C211.942 82.3592 211.451 82.8125 210.96 83.2784C212.685 82.1955 213.063 83.4799 213.214 84.7518C213.365 85.8725 213.164 87.0562 213.063 88.2777L210.129 90.2421C211.703 92.962 214.838 93.8687 215.468 96.5635C216.652 97.7849 217.772 98.7923 218.654 99.9886C218.944 100.379 218.604 101.651 218.163 102.092C217.08 103.162 215.657 103.955 214.536 105.038C213.995 105.567 213.793 106.562 213.164 107.909C212.383 107.053 211.401 106.335 210.91 105.378C210.129 103.905 209.688 102.217 208.907 100.152C207.308 103.212 206.477 105.466 209.348 107.607C210.481 108.413 210.28 112.971 209.55 114.445C209.159 115.326 209.159 116.434 208.97 117.505C207.321 115.817 205.558 113.954 203.77 112.14L203.329 112.581C204.336 114.608 206.59 116.082 205.91 119.242C204.254 118.403 202.628 117.504 201.037 116.548C200.206 116.082 199.904 114.394 198.481 115.465C197.889 114.243 196.907 113.06 196.768 111.813C196.378 108.337 194.023 106.247 190.762 107.078C189.238 107.469 187.865 107.569 187.311 106.008C187.11 105.265 188.168 104.043 188.659 103.036C188.86 102.62 189.2 102.28 189.591 102.57H196.277C194.905 100.316 196.076 99.5731 197.31 98.402C198.783 96.979 201.188 96.1731 200.886 93.1131C200.684 90.708 199.803 89.6754 197.499 90.0154L197.549 90.0658L197.99 87.7362C197.549 87.7614 196.919 87.8621 196.277 87.9125C196.126 85.3688 195.987 82.9133 195.786 80.2185C194.753 80.9111 193.582 81.4022 192.701 82.2333C191.693 83.2155 191.152 82.7747 190.271 82.1325C189.591 81.6037 188.205 81.1251 187.702 81.5029C186.82 82.2333 187.5 82.8755 188.407 83.6059C189.49 84.6384 187.651 87.5725 185.637 87.9628C185.536 90.7584 186.568 93.705 183.08 95.6568C180.234 97.2309 178.031 97.4953 175.827 94.9013C175.626 96.299 175.537 97.1805 175.437 98.062C175.071 98.2634 174.719 98.4523 174.429 98.6538C172.805 100.568 171.168 102.432 169.594 104.346C168.561 105.567 167.44 106.335 166.017 105.227C165.084 105.965 164.135 106.683 163.172 107.38C162.92 107.947 162.492 109.395 162.29 109.345C159.734 108.766 158.84 111.36 157.455 112.531C154.546 115.074 151.838 118.021 150.818 122.328C150.277 124.393 150.227 125.476 152.531 125.249V131.973C155.352 130.425 157.555 132.553 159.343 134.517C163.713 139.378 163.562 139.504 169.694 140.914C168.612 145.347 166.269 149.981 170.866 154.124C172.855 153.758 173.787 152.235 173.586 149.59C173.485 147.663 173.535 145.73 173.737 143.81C173.825 143.215 174.141 142.678 174.618 142.312C175.438 141.806 176.318 141.405 177.237 141.116C182.148 139.302 182.148 133.245 180.033 130.034C179.693 129.543 179.794 128.221 180.184 127.78C181.909 125.69 183.962 123.902 182.589 120.64C184.163 119.117 183.571 117.039 183.962 115.175C184.352 113.513 185.737 113.651 187.059 114.004C188.696 114.445 190.422 114.495 191.958 115.074C192.789 115.364 193.532 116.359 193.973 117.228C195.005 119.381 195.987 121.597 198.582 121.396C198.242 123.259 197.65 124.997 197.65 126.735C197.713 128.109 198.047 129.457 198.632 130.702C199.224 132.125 200.395 132.25 201.276 131.218C202.888 129.379 204.336 127.289 205.86 125.337C206.112 125.022 206.301 124.67 206.741 123.99C207.913 128.888 209.021 133.434 210.154 138.307C209.632 139.02 209.094 139.721 208.542 140.41C210.645 142.123 212.761 143.798 214.813 145.561C215.264 145.979 215.632 146.479 215.896 147.034C216.337 147.764 216.538 148.797 217.067 149.338C217.999 150.27 218.1 151.164 218.251 152.524C218.541 155.484 216.438 156.075 215.065 157.448L215.166 157.372C213.592 157.007 212.32 157.221 211.199 158.695C209.487 160.949 207.006 160.659 204.613 160.458C202.334 160.256 200.08 159.916 197.813 159.677C197.373 159.677 196.781 159.626 196.491 159.878C194.338 161.54 192.222 163.303 190.333 164.852C192.273 164.248 194.426 163.404 196.68 162.989C197.461 162.825 198.493 163.656 199.287 164.248C199.476 164.399 199.324 165.318 199.186 165.822C198.896 166.703 198.305 167.484 198.153 168.429C197.952 169.574 198.103 170.783 198.103 171.954L198.796 171.929L198.456 169.826C199.879 170.544 201.062 171.149 202.334 171.753C202.183 172.269 201.994 172.886 201.843 173.528L202.284 173.969C203.505 172.685 204.714 171.426 205.986 170.04C206.427 171.174 206.817 172.143 207.308 173.466C203.115 175.493 198.859 177.583 194.338 179.762C192.625 178.427 193.557 176.991 195.119 175.317C194.376 175.392 193.746 175.266 193.645 175.443C192.764 177.243 191.064 176.79 189.704 177.281C187.525 178.062 185.07 178.729 184.377 181.6C184.176 182.431 184.629 183.414 185.07 184.396C183.987 186.801 181.594 185.768 179.63 186.285C179.58 186.259 179.63 186.36 179.68 186.385C179.731 186.411 179.781 186.385 179.882 186.411C179.831 186.801 179.781 187.481 179.731 187.481C177.527 187.33 176.935 189.105 175.764 190.629C174.177 192.732 173.283 195.326 171.42 197.706V194.822C171.054 195.187 170.803 195.364 170.803 195.464C170.903 196.497 170.853 197.479 171.054 198.424C171.37 199.661 171.257 200.968 170.733 202.132C170.209 203.297 169.306 204.249 168.171 204.833C166.559 205.765 165.174 207.201 163.713 208.41C163.172 208.875 162.68 209.442 162.051 209.757C158.638 211.52 157.656 213.144 158.198 217.136C158.449 219.39 159.104 221.594 159.495 223.823C159.706 224.702 159.689 225.621 159.444 226.492C159.104 227.525 158.298 228.356 157.706 229.288C157.014 228.507 156.095 227.877 155.742 226.983C154.961 224.729 153.072 222.84 154.105 219.944C154.357 219.226 152.884 217.791 152.141 216.632C151.259 217.023 150.567 217.325 149.887 217.69C147.532 214.806 144.497 215.801 141.626 215.94C141.286 215.99 141.047 217.803 140.593 219.252C138.679 218.836 136.199 218.043 133.655 217.816C132.232 217.69 130.708 218.32 129.235 218.786C128.347 219.106 127.518 219.57 126.779 220.158C125.822 220.989 124.399 221.946 124.311 223.004C123.77 228.205 121.151 233.091 122.347 238.543C122.939 241.037 125.885 245.482 128.064 246.048C128.643 246.199 129.386 245.796 130.066 245.708C131.3 245.507 132.572 245.318 133.844 245.142C133.945 245.368 134.096 245.557 134.234 245.784C135.015 243.857 135.808 241.905 136.639 240.029C136.891 239.538 137.282 238.845 137.672 238.72C139.51 238.329 141.374 238.027 143.263 237.813C144.976 237.611 145.076 238.556 144.484 240.004C143.792 241.641 143.364 243.417 142.721 245.016C141.815 247.257 140.782 249.436 139.762 251.891C142.583 251.891 145.227 251.765 147.821 251.891C150.97 252.068 151.7 253.654 151.007 256.928C150.415 259.736 148.652 262.544 151.007 265.491C152.77 267.733 154.395 268.375 156.863 267.115C159.482 265.768 161.396 266.889 163.499 269.294C164.532 267.733 165.413 266.209 166.446 264.874C167.104 264.132 167.883 263.506 168.75 263.023C170.374 262.091 172.062 261.273 173.774 260.517C174.467 260.227 175.298 260.177 176.154 260.039C176.189 260.288 176.252 260.533 176.343 260.769C175.852 261.461 175.298 262.192 174.757 262.985C177.527 263.892 177.426 261.046 178.32 260.127C179.982 261.499 181.506 262.884 182.828 264.018C184.692 264.345 186.354 264.798 188.092 264.987C188.734 265.088 189.414 264.622 190.107 264.471L194.741 263.426L195.03 264.144C194.64 264.496 194.25 264.874 193.847 265.214C193.998 265.39 194.136 265.529 194.237 265.68C195.119 264.937 196.05 264.207 196.982 263.476C197.083 263.602 197.272 263.728 197.423 263.841C197.272 264.446 196.932 265.088 197.033 265.68C197.234 266.662 197.473 267.934 198.065 268.526C199.337 269.71 201.113 270.301 202.183 271.624C203.845 273.676 205.734 274.86 208.29 274.784C213.214 274.608 216.312 276.862 218.226 281.597C219.057 283.574 220.732 285.009 220.581 287.692C220.581 288.548 223.2 289.807 224.723 290.474C226.763 291.343 228.967 291.671 231.02 292.477C231.612 292.741 231.951 293.9 232.304 294.466C233.677 294.567 235.049 294.567 236.422 294.756C238.6 295.083 240.716 295.486 242.844 296.116C243.625 296.343 244.317 297.249 245.048 297.841C246.08 298.66 247.062 300.095 248.082 300.095C251.029 300.095 251.47 302.362 252.049 304.515C252.359 305.654 252.387 306.851 252.13 308.003C251.873 309.155 251.34 310.227 250.576 311.126C248.422 313.884 246.257 316.629 244.204 319.412C243.914 319.802 243.952 320.52 243.952 321.087C244.053 324.613 244.393 328.101 242.882 331.526C241.799 334.12 241.761 337.218 240.552 339.711C239.872 341.033 237.908 342.066 236.409 342.305C231.952 343.073 228.564 345.642 225.718 349.055C225.126 349.734 224.912 351.422 225.227 352.417C225.819 354.268 225.278 355.653 224.421 357.114C223.238 359.128 222.746 361.798 221.185 363.297C218.906 365.475 218.024 368.409 216.551 370.991C214.775 373.899 213.554 373.685 210.57 373.194C209.789 373.043 209.096 372.728 208.391 372.502C209.058 374.126 209.398 375.864 210.33 377.01C211.942 379.075 210.33 380.737 209.638 381.719C207.409 384.704 204.047 384.779 200.622 384.389C200.722 385.938 200.911 387.461 200.823 388.922C200.722 390.761 199.589 391.415 198.027 391.063C197.247 390.887 196.453 390.395 195.333 389.904C195.572 391.264 195.723 392.272 195.912 393.481C196.743 393.43 197.486 393.33 198.367 393.279C199.01 394.513 199.488 395.584 197.675 396.364C196.353 396.956 195.66 398.039 196.101 399.84C196.302 400.696 195.71 401.955 195.169 402.761C194.426 403.806 193.406 404.612 192.525 405.532C193.658 406.564 194.829 407.534 196 408.516C196.101 408.617 196.252 408.617 196.441 408.692C197.322 410.531 196.781 412.004 195.61 413.528C195.03 414.271 194.829 415.379 194.489 416.323C194.338 416.638 194.388 417.104 194.199 417.28C190.787 420.101 192.928 422.645 194.741 425.377H192.776C193.116 425.642 193.268 425.793 193.419 425.894C193.948 426.221 194.942 426.498 195.03 426.989C196.013 430.591 198.758 431.472 201.553 432.366C201.755 432.416 201.893 432.618 202.485 433.059C200.521 434.028 198.808 434.822 197.045 435.728L197.486 436.988C195.996 436.423 194.51 435.848 193.028 435.262C193.09 435.04 193.175 434.825 193.28 434.62C192.839 434.91 192.147 435.602 191.996 435.451C191.039 434.809 190.308 433.928 189.868 433.499L182.526 429.017C184.1 426.511 182.274 425.654 180.763 424.483C181.645 424.118 182.237 423.841 182.967 423.551C182.715 422.808 182.526 422.204 182.274 421.65C181.934 422.254 181.594 422.985 181.103 423.954C180.071 420.92 179.189 418.502 178.408 416.059C177.917 414.485 176.696 412.772 179.051 411.551C179.491 411.324 179.491 410.191 179.743 409.322C179.403 409.146 179.101 408.906 178.761 408.856C178.031 408.78 177.237 408.806 176.507 408.806C176.847 407.697 177.048 406.413 177.64 405.519C178.522 404.285 178.811 403.403 177.93 402.132C177.728 401.88 178.27 401.099 178.509 400.558C178.744 400.622 178.975 400.697 179.202 400.784C178.926 400.4 178.665 400.005 178.421 399.601C179.013 399.475 179.504 399.424 179.995 399.374V393.884C179.794 393.884 179.705 393.833 179.554 393.833C179.214 395.395 178.811 397.019 178.471 398.593C178.283 398.543 178.031 398.518 177.842 398.492C177.64 398.203 177.351 397.926 177.401 397.661C177.451 394.249 177.653 390.849 177.603 387.424C177.546 385.958 177.266 384.51 176.771 383.13C176.28 381.921 176.52 381.216 176.872 380.007C178.194 375.058 179.328 369.958 178.446 364.606C178.056 362.138 178.257 359.519 178.308 356.937C178.408 353.336 178.648 349.735 178.748 346.133C178.799 343.149 178.358 340.101 178.648 337.117C179.189 332.017 175.903 330.065 172.691 327.899C170.853 326.665 168.7 325.721 167.277 324.021C165.615 322.056 164.582 319.462 163.31 317.107C162.038 314.501 160.905 311.806 159.532 309.262C158.726 307.764 157.895 305.976 156.624 305.195C155.012 304.238 154.584 303.105 154.244 301.367C153.752 299.1 154.835 298.08 156.372 297.048C155.83 295.914 154.898 294.794 154.999 293.811C155.251 290.953 155.931 288.246 158.185 286.206C159.872 284.707 161.635 282.944 162.529 280.879C163.159 279.267 162.819 276.912 162.328 275.074C161.686 272.618 160.464 270.314 159.482 267.959H158.575C158.185 269.042 157.883 270.276 157.253 271.132C156.863 271.649 155.641 272.027 155.15 271.75C153.745 270.913 152.239 270.261 150.667 269.81C148.564 269.244 146.738 267.241 145.026 265.567C144.384 264.899 144.434 263.413 143.993 262.456C142.57 259.321 139.762 258.187 136.891 257.822C133.655 257.382 131.502 255.304 129.386 253.062C128.064 251.652 126.83 251.476 125.142 252.143C124.064 252.562 122.871 252.579 121.78 252.193C118.544 250.871 115.459 249.297 112.361 247.736C110.374 246.648 108.437 245.471 106.556 244.21C105.057 243.228 104.428 241.994 104.869 239.79C105.178 237.861 104.832 235.883 103.886 234.174C102.514 231.731 100.361 229.691 98.6857 227.412C98.1946 226.794 98.2953 225.712 98.0939 224.641C95.7391 221.644 93.1954 218.408 92.188 214.064C91.9362 212.729 90.9666 211.595 90.3243 210.311C89.934 210.487 89.5436 210.601 89.1532 210.777C89.4051 212.452 89.254 214.328 89.934 215.713C92.1376 220.221 94.9584 224.352 95.4495 229.628C95.5502 230.245 96.5324 230.711 97.0235 231.378C97.8042 232.461 98.2953 233.557 96.6331 234.249C95.4998 232.94 94.568 231.655 93.3969 230.497C92.4902 229.565 92.188 228.709 92.1376 227.286C92.0873 226.102 90.7147 224.931 89.8332 223.898C89.0525 223.017 88.0955 222.324 86.7229 221.103C89.3043 220.561 89.6443 219.138 88.297 217.715C85.8918 215.159 85.2118 211.747 84.7711 208.535C84.2296 204.241 81.5852 202.894 78.4497 201.723C77.8704 199.091 77.1778 196.472 76.586 193.853C75.7981 190.234 75.0719 186.603 74.4075 182.96C74.3571 182.822 74.269 182.633 74.3068 182.507C74.7979 179.699 75.0497 176.865 75.7801 174.171C76.586 171.375 78.0089 168.769 78.84 165.96C79.4319 163.971 79.5326 161.818 80.0111 159.778C80.9933 155.635 79.6208 152.449 77.0771 149.477C76.2712 148.545 75.9312 147.147 75.3897 145.951C75.5912 145.724 75.8304 145.535 76.0193 145.309L79.4822 147.512C77.7697 145.044 76.3215 142.878 78.1978 140.624C77.1652 138.71 75.6793 136.947 75.289 134.983C74.9993 133.56 76.2712 131.847 76.7371 130.563C76.0697 129.291 75.4904 128.158 75.0497 127.377C74.7532 128.219 74.4761 129.067 74.2186 129.921C73.7275 129.291 73.4379 128.85 73.1357 128.448C72.9845 128.699 72.7957 129.09 72.5942 129.455L72.0401 129.405C72.0401 128.498 71.6497 127.125 71.9897 126.899C74.0801 125.501 72.229 124.368 71.889 123.196C71.7379 122.756 71.0579 122.454 71.0579 122.076C70.9572 119.28 71.0075 116.535 71.0075 114.205C69.7324 111.486 68.4395 108.774 67.1291 106.071L67.6202 105.945C66.6646 105.368 65.7159 104.781 64.7743 104.182C64.0439 103.741 63.301 102.948 62.5706 102.897C61.198 102.809 60.4677 102.507 59.6492 101.084C59.1077 100.203 57.2944 100.152 56.0225 99.7368C56.4129 98.9938 56.8536 98.2635 57.4455 97.1679H53.504C54.2848 98.3642 54.8262 99.2205 55.4181 100.077C52.3581 100.983 49.3611 101.903 46.3767 102.746C45.6134 102.992 44.795 103.01 44.0219 102.797C46.6286 100.24 46.3767 94.662 51.7159 94.6998C51.1744 94.448 50.3937 93.8687 50.1041 94.0576C48.7315 94.9894 47.4597 96.2109 46.0871 97.2435C44.3242 98.5657 42.4857 99.7871 40.4709 101.172C41.7427 102.444 41.2516 103.351 39.6901 104.358C35.648 106.826 31.6813 109.408 27.8029 112.178C25.7883 113.681 23.5309 114.826 21.1289 115.565C17.7166 116.532 14.3321 117.595 10.9794 118.751C10.7779 118.487 10.6394 118.235 10.4127 117.996C11.1809 117.379 11.8609 116.623 12.6416 116.182C14.3038 115.301 16.0289 114.583 17.6912 113.803C18.1319 113.576 18.5222 113.034 18.9126 113.034C22.2496 113.11 24.4785 110.39 27.0977 108.829C29.3517 107.406 31.0265 104.686 32.928 102.545C32.7769 102.293 32.6384 102.003 32.4873 101.764L29.6414 101.915C29.4021 99.1701 26.7703 100.883 25.1585 100.392C25.7377 98.2383 26.2792 96.2235 26.871 94.1331C23.0429 94.108 21.7963 91.8035 23.4837 88.4162C23.6851 88.0762 23.874 87.5347 23.7355 87.2703C22.6274 84.8903 23.7355 83.417 25.3977 81.9688C27.1355 80.4703 28.5584 78.6067 30.2206 77.0452C30.7117 76.6045 31.7443 76.4282 32.2354 76.7052C34.1495 77.8133 34.7413 77.5867 35.2828 75.4837C36.2146 75.7985 37.5872 76.7052 37.9272 76.3652C38.9598 75.2948 39.665 73.7712 40.4079 72.3986C40.6975 71.8445 40.7983 71.1267 41.0501 70.3838C41.0501 70.3838 40.7101 70.2453 40.6094 70.3334C38.2798 72.5875 35.8243 70.623 33.4191 70.6734C32.6887 70.6734 31.3665 69.4016 31.3665 68.6586C31.3162 67.3364 32.0969 65.989 32.588 64.3142C32.4369 64.075 31.8954 63.2817 31.0643 61.9469C34.1495 60.9143 36.8065 59.8817 39.5642 59.101C40.3072 58.8995 41.1383 59.3024 41.919 59.441L41.2768 61.8713C42.599 62.8787 43.9464 64.3646 45.5204 62.098C45.051 57.3046 44.5431 52.5152 43.9968 47.73C44.3367 47.3396 44.8782 46.3826 45.659 45.7656C46.2004 45.3248 47.2708 44.9597 47.8123 45.2493C49.9656 46.3826 51.59 45.2997 53.2522 44.1537C54.6751 43.1212 55.9722 41.799 57.4958 40.9175C58.4781 40.3508 59.7499 40.376 60.858 39.9856C61.7395 39.696 62.5328 39.1042 63.3639 38.7894C64.3224 38.4615 65.3087 38.2212 66.3106 38.0716C67.3809 37.8953 68.6653 38.1975 69.5972 37.7316C71.6623 36.7998 73.0475 37.3916 73.6897 39.8345C73.7401 40.1242 73.6897 40.716 73.6897 40.716C77.0519 40.8671 75.843 44.1411 76.9512 46.03C78.563 45.4633 79.5956 46.1056 80.88 47.6167C82.4918 49.43 85.0481 50.2611 87.2014 51.5581C87.7303 51.8477 88.4229 52.0744 88.6747 52.5403C89.195 53.6813 89.9933 54.6735 90.9965 55.426C91.9998 56.1784 93.1758 56.667 94.4169 56.8469C93.3843 59.3528 94.5176 60.8387 95.8398 62.0224L101.582 59.1765C101.834 59.9195 102.023 60.4987 102.174 61.0654C105.02 60.2595 107.891 59.4787 110.8 58.698C111.14 61.0906 112.764 61.5439 113.847 59.7306C114.237 58.9499 114.388 57.9425 115.22 57.1743V65.2209C116.542 63.9742 117.675 62.9668 119.237 61.418C118.796 63.3824 118.456 64.7801 118.065 66.4423C118.557 66.2535 119.098 66.1024 119.539 65.7875C121.151 64.4779 122.75 64.8809 123.581 66.8831C124.136 68.2006 124.984 69.3748 126.059 70.3172C127.135 71.2595 128.41 71.9454 129.789 72.323C130.822 72.6127 131.854 74.0986 132.144 75.2445C132.635 77.083 131.111 76.7933 130.041 76.9319C129.6 76.9822 129.159 77.3978 128.517 77.8133C131.262 80.5081 134.108 80.5585 137.244 79.4755C137.634 80.2059 137.873 80.974 138.39 81.3896C138.881 81.8303 139.813 82.2711 140.203 82.0192C141.475 81.314 142.583 80.2563 143.414 79.6266C142.822 79.2866 141.084 78.7955 141.084 78.4178C141.236 76.3778 142.973 76.7808 144.195 76.7304C145.177 76.7052 146.21 76.9319 147.192 77.02L147.141 76.957ZM158.235 168.567C158.487 168.328 158.676 168.101 158.953 167.887C157.895 165.998 157.115 163.895 155.792 162.271C154.961 161.188 153.463 161.138 152.141 162.321C151.158 163.203 149.836 163.618 148.665 164.235C147.582 164.815 146.512 165.406 145.429 165.973C148.275 169.499 150.239 165.117 152.342 165.457C152.871 170.431 156.775 166.666 158.235 168.567ZM114.237 83.8577C112.273 85.2303 110.51 86.414 108.621 87.7362C111.24 90.0406 112.071 85.4318 114.338 86.754C114.237 87.3206 114.086 87.9754 113.847 89.1339C115.32 87.3458 116.202 84.374 118.506 87.1443C119.337 85.9858 120.08 84.991 121.113 83.5177C118.808 84.6888 117.385 84.2481 116.315 82.1955C117.297 81.7548 118.179 81.3896 119.06 81.0496C118.96 80.8733 118.96 80.7096 118.859 80.5333L108.143 82.1955C110.208 83.0266 112.802 81.6414 114.237 83.8577ZM161.799 179.195C162.542 177.205 163.222 175.304 163.902 173.302L165.766 175.165C166.017 175.04 166.257 174.876 166.458 174.75C166.017 173.642 165.866 171.917 165.086 171.539C162.932 170.431 160.578 169.033 157.908 171.438C160.288 172.408 160.779 174.083 159.948 175.644C160.615 176.979 161.106 177.86 161.799 179.195ZM150.075 182.771L151.31 183.048C151.838 181.688 152.581 180.354 152.884 178.968C153.324 176.387 153.324 173.717 156.095 172.458C156.586 172.206 156.838 171.337 157.316 170.607C154.747 170.267 152.682 170.783 151.801 173C150.919 175.14 150.579 177.558 150.138 179.913C149.924 180.807 150.075 181.789 150.075 182.771ZM117.763 105.957C115.849 106.965 114.288 107.796 112.663 108.602C113.646 110.831 115.698 109.949 117.323 109.257C120.609 107.834 123.719 105.97 126.931 104.283C126.049 103.917 125.142 103.817 124.601 104.257C122.007 106.36 119.627 107.166 117.524 103.376C117.612 104.283 117.713 105.189 117.763 105.957ZM158.878 183.099C158.953 183.439 159.003 183.791 159.041 184.131C162.038 184.774 164.141 182.368 166.697 181.411C166.647 181.185 166.546 180.996 166.546 180.794C164.003 181.537 161.446 182.356 158.878 183.099ZM138.377 149.641C138.327 148.344 138.201 147.122 138.201 145.888C138.201 144.566 138.516 143.143 136.488 142.803C136.098 145.447 135.758 147.903 138.377 149.641ZM167.138 178.502C167.189 178.729 167.239 178.968 167.34 179.195C173.057 179.308 173.057 179.308 173.107 177.18C171.054 177.621 169.103 178.062 167.138 178.502ZM83.2978 151.92C83.197 152.021 83.0459 152.147 82.9578 152.26L83.2474 155.496C83.2474 155.786 83.1466 156.088 83.0963 156.378C83.4363 156.378 84.0281 156.478 84.0785 156.327C84.3303 155.635 84.6703 154.879 84.5192 154.262C84.3177 153.444 83.7259 152.738 83.2978 151.92ZM123.279 117.794L120.118 120.099L125.482 119.117C124.761 118.655 124.026 118.214 123.279 117.794ZM289.625 21.8903C290.254 22.2807 290.872 22.7214 291.854 23.3636C291.111 24.1192 290.456 24.8117 289.763 25.4666C291.262 25.2903 293.214 26.4991 293.755 23.5777C293.806 23.3258 295.178 23.1873 295.858 23.3258C296.148 23.4014 296.601 24.5977 296.4 24.8999C295.657 26.2272 294.807 27.4908 293.856 28.6776C293.516 29.068 293.025 29.2947 292.622 29.6095C292.723 29.8613 292.874 30.0754 293.012 30.3272C294.674 29.2946 296.349 28.2369 298.062 27.2169C298.011 26.9902 297.911 26.8266 297.823 26.5747C298.402 26.8266 298.893 27.1162 299.485 27.3428C299.485 25.9451 301.348 24.8117 303.338 25.114C304.054 25.2448 304.749 25.4736 305.403 25.794C308.274 27.1665 308.564 29.3324 306.134 31.3346C304.811 32.4554 303.577 33.5887 302.091 34.8605C302.041 35.1124 302.041 35.8679 301.751 36.3842C300.53 38.1723 298.905 39.7716 298.024 41.7234C296.954 44.0278 296.45 46.6345 295.82 49.1026C295.48 50.5759 295.38 52.1248 295.09 53.9129L294.02 53.9884C294.511 54.4543 294.8 54.8195 295.002 54.7944C296.866 54.6684 297.105 55.7514 296.714 57.3632C296.274 59.101 295.883 60.8387 295.443 62.6772C295.002 60.8135 294.561 59.101 294.12 57.3632H293C292.798 58.2447 292.559 59.1513 292.357 60.2595L291.476 60.1083C291.476 60.2595 291.476 60.3602 291.426 60.4735C292.156 60.7002 292.849 60.9395 294.12 61.3802C293.78 63.6343 293.34 65.9387 293.088 68.3438C293.037 68.8349 293.68 69.4771 294.259 70.4971C293.428 71.1393 292.345 72.0712 291.766 72.5623C291.514 73.8719 291.614 75.1185 291.123 75.6097C290.355 76.2896 289.134 76.4911 288.693 76.6422C288.542 78.7074 288.403 80.3444 288.252 81.9311L287.472 82.2207C286.363 80.9488 285.243 79.7274 283.971 78.2289C284.5 79.337 284.752 80.6089 285.495 81.2007C288.605 83.5555 288.806 86.7917 288.315 90.2924C284.764 91.4887 283.782 88.8443 282.699 86.2503C282.699 87.1317 282.9 88.0888 282.598 88.8569C282.359 89.5243 281.528 89.9021 280.986 90.3806C282.9 90.771 284.865 91.2117 286.842 91.6272C286.943 91.8539 287.043 92.0428 287.132 92.2695C284.462 94.1079 281.868 96.2613 278.972 97.6338C276.516 98.8679 273.456 98.7671 270.95 99.9382C269.011 100.769 267.588 102.734 265.876 104.157C264.213 105.479 262.488 106.763 260.776 108.035C260.39 108.388 259.915 108.627 259.403 108.728C258.912 108.778 258.421 108.438 257.98 108.262L253.61 110.617C252.779 112.946 252.137 115.049 251.218 117.014C250.135 119.318 248.813 121.459 247.642 123.688C246.508 125.916 246.811 129.052 244.053 130.248C243.952 130.148 243.864 129.996 243.864 129.883C243.423 128.41 241.408 129.367 240.993 127.302C240.603 124.745 238.588 126.471 237.001 126.37C237.107 126.15 237.196 125.923 237.265 125.69C236.409 124.103 235.679 122.995 235.175 121.761C234.533 120.048 234.092 118.21 233.601 116.422C233.395 115.529 233.215 114.63 233.06 113.727C232.808 111.788 232.77 109.798 232.317 107.947C231.095 103.338 231.586 99.1197 234.382 95.3546C234.483 95.2161 234.873 95.1657 234.873 95.1153C234.583 91.8287 236.296 93.5413 237.454 93.9065C239.52 89.4235 239.52 89.4236 236.686 87.0688C236.737 87.4088 236.737 87.648 236.837 87.8495C237.303 88.731 238.965 89.625 237.253 90.6198C235.956 91.3628 234.331 91.9421 233.5 89.7132C233.349 89.2725 233.11 88.7813 233.06 88.2902C232.909 86.8169 234.331 85.8347 234.281 84.2732C234.281 84.1221 235.906 83.8829 236.837 83.7821C237.404 83.7318 237.983 83.8325 238.575 83.8829C238.323 83.417 237.983 82.951 237.845 82.4851C237.694 81.9311 237.744 81.2888 237.643 80.6466C234.382 81.7296 233.891 81.1629 234.671 77.5615C235.062 75.9371 234.18 73.5445 236.586 73.1415C236.246 70.0564 235.956 66.8579 235.654 63.7224L235.062 63.7979C235.171 63.6869 235.268 63.5645 235.351 63.4328C235.994 62.3876 235.301 56.8847 234.42 56.1291C233.79 55.638 233.299 54.9077 232.606 54.5803C231.385 54.0136 230.503 52.4018 228.677 53.4218C227.897 53.8625 226.575 52.9559 225.492 52.8299C224.95 52.8299 224.346 53.2707 223.162 53.7114C222.52 52.7796 221.588 51.5077 220.807 50.1351C220.694 50.0344 221.588 49.3041 222.041 48.8381C221.601 48.4226 220.807 47.9315 220.404 47.2389C220.115 46.773 219.913 45.7656 220.203 45.4004C220.418 45.1279 220.689 44.9041 220.997 44.7435C221.305 44.583 221.644 44.4893 221.991 44.4686C223.855 44.3426 225.693 44.393 227.607 43.9019C227.217 43.8012 226.915 43.65 226.524 43.6123C225.353 43.4863 223.804 43.8641 223.162 43.1967C221.917 41.8078 221.005 40.1544 220.492 38.3612C220.291 37.6183 221.449 35.8805 222.281 35.5657C224.774 34.659 227.406 34.1931 230.05 33.6768C230.881 33.5005 231.813 33.8028 233.186 33.9413C234.017 32.7702 235.15 31.1961 236.422 29.3828C235.351 28.8413 234.357 28.3502 233.488 27.8591C234.659 23.3007 239.834 20.014 243.146 22.1673C243.688 20.7444 244.317 19.4726 244.72 18.0748C245.262 16.1481 246.382 15.7956 247.327 16.7778C248.108 16.2237 248.649 15.5059 249.342 15.3045C251.054 14.8385 252.817 14.5363 254.605 14.2467C255.487 14.1334 256.217 13.4911 256.96 15.2037C258.005 17.6844 258.597 18.4148 258.257 20.2281H260.272L260.914 14.0326C264.541 15.8963 264.201 20.354 266.896 22.5577C266.354 19.5481 265.964 16.8156 265.473 13.9571H269.049C269.099 13.7304 269.099 13.4911 269.15 13.2897C268.621 13.063 268.029 12.8489 267.437 12.6223C267.8 11.9377 268.31 11.3417 268.93 10.877C269.55 10.4122 270.266 10.0902 271.025 9.93377C271.784 9.77739 272.568 9.79056 273.321 9.97232C274.075 10.1541 274.779 10.5 275.383 10.9853C275.332 10.2801 275.232 9.63786 275.131 8.51713L276.315 9.71342C277.788 8.80676 279.009 7.64825 280.332 7.35863C283.518 6.61567 290.708 9.46157 292.647 12.3578C290.809 12.4586 289.386 12.4963 287.925 12.5971C287.916 12.7006 287.882 12.8002 287.824 12.8867L291.866 13.1763C292.395 13.2267 293.44 13.2267 293.44 13.3023C293.692 15.6822 295.745 15.8585 297.067 16.8785C299.132 18.5659 299.22 19.8 296.777 20.7318C294.523 21.5629 292.017 21.5629 289.6 21.9281C286.099 19.8503 283.543 22.6458 280.155 23.5777C283.618 22.9607 286.603 22.4066 289.625 21.8903ZM594.362 324.99C595.734 322.724 596.414 320.898 597.648 319.714C598.832 318.606 600.557 318.178 602.182 317.385C601.892 317.019 601.489 316.579 600.759 315.76C604.801 316.692 608.339 317.536 612.155 318.455C611.412 319.613 610.694 320.722 609.951 321.83C610.291 322.044 610.934 322.434 611.614 322.9C610.493 323.366 609.511 323.756 608.579 324.159C608.528 324.499 608.528 324.852 608.478 325.192C610.493 326.753 612.545 328.277 614.56 329.838C614.9 330.128 615.379 330.279 615.681 330.619C617.922 332.886 619.093 332.634 619.874 329.398C620.655 326.25 621.133 322.963 621.813 319.777C622.153 318.165 622.594 316.566 623.085 314.627C625.201 316.05 625.15 318.455 625.692 320.495C626.082 321.83 625.49 323.63 627.744 323.555C628.185 323.555 628.827 324.638 628.979 325.33C629.57 328.466 629.86 331.727 630.653 334.838C630.893 335.946 632.315 336.676 633.046 337.684C633.953 338.766 634.733 339.925 635.464 341.083C636.244 342.418 635.854 344.584 638.045 345.038C638.435 345.138 638.335 346.863 638.775 347.644C639.707 349.382 640.79 350.981 641.823 352.669C642.135 352.329 642.477 352.017 642.843 351.737C642.944 351.989 643.095 352.102 643.095 352.203C642.843 355.363 642.604 358.524 642.213 361.66C642.062 362.969 641.483 364.216 641.042 365.462C640.161 368.044 639.418 370.764 638.196 373.106C636.307 376.582 633.902 379.704 631.913 383.117C630.729 385.195 630.061 387.65 628.979 389.854C628.588 390.736 627.694 392.158 627.153 392.058C623.866 391.667 622.015 394.173 619.572 396.075C618.753 394.853 617.96 393.632 617.179 392.498C615.782 393.921 614.22 395.432 612.004 392.939C611.034 391.806 609.309 391.34 608.377 390.144C607.735 389.376 607.937 387.827 607.785 386.668C607.645 385.462 607.535 384.253 607.458 383.042L602.232 384.061C603.013 381.568 607.458 383.91 606.375 379.755C605.494 380.384 604.461 381.064 603.466 381.757C603.327 381.622 603.212 381.465 603.126 381.291C604.197 379.239 605.355 377.148 606.438 375.146L606.148 374.97L600.633 379.755C600.784 379.906 600.243 379.553 600.117 379.062C599.638 377.047 599.298 374.995 598.807 372.93C598.757 372.59 598.417 372.199 598.064 372.061C594.387 370.336 590.811 368.371 586.668 370.751C585.736 371.268 584.464 371.066 583.457 371.444C581.492 372.212 579.339 372.753 577.765 374.113C576.493 375.196 575.461 376.116 573.836 375.713C570.625 374.856 567.83 376.166 565.248 377.891C562.654 379.717 559.959 378.093 558.587 375.839C558.297 375.398 558.486 374.164 558.876 373.773C560.74 371.96 560.841 369.706 560.501 367.301C560.11 363.939 559.808 360.577 559.267 357.265C558.977 355.577 558.184 353.978 557.403 351.8L560.161 352.681C557.793 349.583 560.211 346.448 560.501 343.212C560.551 342.72 561.521 342.305 562.113 341.889C566.041 338.93 570.676 338.263 575.108 336.727C576.682 336.21 577.954 334.145 579.075 332.584C579.818 331.501 580.057 330.002 580.686 328.138C581.568 329.322 581.971 329.826 582.651 330.682C582.565 329.878 582.498 329.072 582.449 328.264H584.25C584.452 325.721 587.902 322.233 590.206 322.233C590.647 322.233 591.088 322.497 591.491 322.774C592.599 323.593 593.632 324.449 594.362 324.99Z" fill="#75B962"/>
<path fill-rule="evenodd" clip-rule="evenodd" d="M213.566 22.8991V19.7888L218.024 20.2547C215.128 18.9829 212.282 17.7614 209.537 16.4266C207.497 15.4948 207.157 13.6814 207.799 11.5785C208.139 10.3444 208.655 9.17335 209.008 8.15336C208.668 8.07781 208.152 7.95189 207.66 7.86374C207.812 7.37263 207.912 6.57931 208.252 6.41561C209.348 5.89932 210.582 5.55933 211.753 5.20674C212.395 5.00526 213.037 4.95489 213.957 4.81637L216.11 6.07561C216.853 4.81636 217.281 3.17936 218.213 2.71344C220.417 1.64308 219.686 5.16895 221.223 5.50895C222.003 4.33785 222.595 3.00306 223.527 2.08381C224.799 0.761606 225.957 0.912718 226.197 2.71344C226.537 2.08381 227.229 0.660862 227.418 0.736417C228.589 1.20234 229.672 1.98307 230.755 2.66306C230.805 2.54973 230.856 1.78159 230.957 0.660868C234.004 0.610498 236.736 2.15936 239.62 2.78899C242.39 3.40602 244.745 5.94969 247.05 7.47337C247.541 8.69484 247.981 9.82817 248.473 10.9993C249.165 12.7118 248.573 14.1474 247.15 14.8274C244.745 15.9859 242.29 16.8421 240.023 17.774C239.973 17.774 240.413 18.0258 241.056 18.3029C240.275 20.4562 238.361 21.048 236.711 21.6902C233.185 23.0124 230.188 25.0524 227.645 27.9361C227.243 28.4048 226.683 28.7096 226.071 28.7924C224.031 29.0568 222.028 29.1828 220.089 29.3339C220.631 30.0894 221.185 30.9079 221.726 31.739C221.525 31.9279 221.386 32.1294 221.185 32.3183C220.631 32.1168 220.039 31.9531 219.145 31.6886L220.328 33.3257C219.636 34.3079 219.006 35.1138 218.414 35.9953C217.281 37.5693 216.211 39.093 214.045 38.6145C213.843 38.5641 213.503 38.5389 213.352 38.69L208.743 43.3492C210.506 44.4826 210.607 45.8551 208.743 46.8373C207.245 47.6936 205.482 47.9581 203.341 48.6506C203.681 47.6181 203.832 47.1773 204.298 46.0062C201.918 47.404 200.256 44.1425 198.09 46.1573C197.75 46.4218 196.428 45.4648 195.584 45.0114C194.262 44.344 192.99 43.6137 191.593 42.9211C192.26 44.9862 191.013 44.6337 189.83 44.344C190.321 47.3536 192.298 48.9529 195.055 48.8269C197.02 48.7514 199.173 48.5625 201.037 49.1418C202.107 49.5321 203.291 51.2069 203.581 52.5291C203.921 54.2921 201.616 56.9113 200.055 56.8609C198.292 56.7854 196.63 56.3446 194.854 56.0046C193.28 55.715 191.593 55.5387 190.019 55.0224C188.356 54.4408 186.77 53.6585 185.296 52.6928C183.433 51.5847 183.382 49.381 184.805 47.127C185.586 45.8425 186.127 44.3818 186.87 42.8078C185.296 42.0648 184.226 41.5737 183.244 41.1456C183.093 40.113 182.992 39.1308 182.753 38.1989C182.123 36.2849 183.395 35.693 184.465 35.9953C185.599 36.2471 187.261 37.3175 187.361 38.1737C187.563 40.4278 188.91 39.9619 190.132 40.2137C190.94 40.4248 191.783 40.4644 192.607 40.3299C193.431 40.1955 194.218 39.8899 194.917 39.433C195.748 38.8915 196.982 39.093 198.103 38.9922C198.493 37.67 196.579 35.3404 199.035 34.7738C199.815 34.5723 200.949 36.1212 201.78 36.7886C201.83 36.1715 203.014 34.6101 200.609 34.1819C200.558 34.1819 200.407 34.1316 200.407 34.0812C199.576 31.6131 197.423 32.5827 195.798 32.016C194.375 31.4872 193.494 30.3538 193.595 28.5405C193.784 26.2865 193.985 24.0576 197.524 24.3472C195.899 23.2013 193.746 23.151 194.577 20.7962C195.118 19.3229 195.748 17.9125 196.34 16.3133C197.121 16.7288 197.914 17.0688 198.594 17.4088C198.001 16.3693 197.397 15.3366 196.781 14.3111C199.085 12.5481 201.049 11.0748 202.913 9.62668C202.697 9.08317 202.466 8.54568 202.221 8.01485C203.102 8.14077 204.399 7.93929 204.701 8.45558C205.234 9.53161 205.453 10.7364 205.331 11.9311C205.192 13.7192 204.802 15.4822 206.905 16.2503C208.794 16.9555 207.635 18.3784 207.434 19.4362C207.283 20.3932 206.754 21.2747 206.363 22.2821C206.855 23.2391 206.703 24.4606 205.772 28.4398C205.972 28.4869 206.17 28.5458 206.363 28.6161C206.754 26.8783 207.635 25.065 207.535 23.365C207.333 21.2369 207.736 19.2725 209.373 18.7562C210.204 18.4666 211.728 20.3051 212.861 21.2621C213.176 21.4762 213.176 21.9547 213.566 22.8991ZM147.179 77.0844C146.978 76.6437 146.839 76.2029 146.587 75.8126C146.387 75.4272 146.172 75.0492 145.945 74.6792C141.953 76.694 137.848 77.4748 133.101 76.3918C133.252 75.0696 133.39 73.6466 133.541 72.0348C133 71.8333 131.879 71.8333 131.476 71.2289C130.623 70.1093 130.096 68.7758 129.953 67.3756C129.814 65.6882 131.136 65.1216 132.597 65.386C134.259 65.726 135.884 66.2423 137.546 66.683C138.352 66.9097 139.095 67.1741 140.266 67.5897C139.195 65.2601 137.936 64.089 135.833 64.089C134.664 64.0889 133.508 63.8354 132.446 63.346C131.816 63.0564 131.174 62.0238 131.224 61.3312C131.224 60.689 132.005 59.8076 132.597 59.5683C133.478 59.1779 134.461 59.3164 135.934 59.1779C134.952 58.9261 134.272 58.9261 133.869 58.649C133.239 58.2083 132.446 57.5913 132.295 56.8987C132.144 56.3446 132.584 55.2617 133.075 54.8965C135.141 53.3224 137.294 51.9751 139.472 50.5017C139.75 50.3476 140.012 50.1662 140.253 49.9603C141.235 49.7588 142.268 49.5951 143.326 49.4188C146.31 49.2929 144.056 51.1817 144.106 51.5217C145.378 52.2143 146.411 52.5543 147.154 53.2595C147.544 53.675 147.544 54.6572 147.884 55.9039C147.733 55.8535 148.224 56.0298 148.917 56.2187L149.496 53.6624C150.818 54.1535 151.46 55.5513 151.07 57.3394C150.73 58.8631 150.138 60.2861 149.647 61.7846C149.899 61.8853 150.088 62.0112 150.34 62.0994C151.561 58.8631 152.795 55.6269 154.067 52.1388L156.787 53.5113C156.875 52.8188 156.926 51.2825 157.366 51.1566C158.438 50.8283 159.591 50.8817 160.628 51.3077C160.917 51.4588 160.968 53.8639 160.527 54.1787C157.165 56.4832 156.774 60.3364 155.2 63.7364C153.513 67.3126 155.843 68.8867 156.573 71.1911C156.913 72.3874 158.386 73.42 157.102 74.5785C156.523 75.1451 155.137 74.7044 154.193 74.7044C153.941 75.737 153.601 78.0918 153.362 78.0414C151.259 77.9407 149.194 77.3992 147.091 76.9585L147.179 77.0844ZM604.259 299.442C603.491 298.132 602.925 297.049 602.282 295.865C603.365 295.614 604.461 295.349 605.544 295.122C605.443 295.223 605.393 295.387 605.342 295.513C603.265 294.442 601.199 293.385 599.122 292.277C599.222 292.025 599.273 291.76 599.323 291.508C601.502 291.282 603.365 289.04 605.695 290.728C606.367 291.2 606.894 291.849 607.219 292.604C607.747 294.077 608.087 295.639 608.679 297.779C609.662 296.621 609.964 296.18 610.304 295.79C612.659 292.805 613.88 292.453 617.293 293.788C620.844 295.148 624.332 296.583 627.908 297.855C630.993 298.976 631.975 302.993 635.337 303.685C635.136 304.491 634.897 305.31 634.557 306.556C636.622 308.899 639.002 311.543 641.306 314.175C641.155 314.276 640.966 314.427 640.815 314.515C639.04 314.175 637.163 314.099 635.589 313.319C634.28 312.676 633.386 311.127 632.177 310.057C631.346 309.276 630.464 308.193 629.432 307.942C628.689 307.715 627.316 308.282 626.875 309.025C625.415 311.253 621.889 312.45 620.138 310.485C618.627 308.798 617.255 308.584 615.353 309.1C614.976 309.226 614.484 309.05 613.54 308.974C614.472 307.715 615.164 306.808 615.844 305.813C615.353 302.791 613.54 301.129 610.656 300.386C608.931 299.971 607.37 298.913 605.695 298.132C605.292 298.51 604.851 298.951 604.259 299.442ZM568.799 298.636C566.658 299.479 564.933 298.699 563.284 297.679C562.994 297.477 562.402 297.188 562.251 297.288C560.35 298.799 558.775 296.646 557.063 296.697C556.773 296.697 556.282 296.357 556.181 296.029C555.25 293.611 554.242 291.168 553.499 288.65C552.87 286.396 554.33 284.923 556.421 285.414C556.962 285.54 557.693 285.615 557.982 285.313C560.047 283.16 561.999 280.918 563.976 278.702C564.077 278.601 564.127 278.387 564.266 278.312C566.809 277.178 568.308 274.836 569.869 272.569C570.071 272.28 570.26 272.129 570.159 272.229C571.809 274.005 573.32 275.655 574.743 277.279C570.94 280.465 570.839 282.24 574.252 287.29C571.418 288.625 568.975 293.637 568.799 298.636ZM427.159 315.837C427.751 318.973 428.444 321.529 428.633 324.123C428.733 325.13 427.701 326.175 427.31 327.309C425.409 333.152 423.583 339.083 421.505 344.875C420.221 348.603 415.788 349.572 413.635 346.802C412.552 345.354 412.262 339.423 413.345 337.899C414.756 335.796 415.889 333.882 414.705 330.986C413.836 328.832 415.398 326.125 417.463 325.47C420.334 324.564 422.777 323.556 423.885 320.043C424.263 318.683 425.699 317.663 427.159 315.837ZM415.927 83.5569C416.128 85.3198 415.335 85.7606 414.025 85.5717C411.96 85.2821 409.605 85.8613 408.623 82.8769C408.472 82.3858 407.2 82.4613 406.52 82.0458C405.657 81.5719 404.935 80.8765 404.43 80.031C404.228 79.5651 404.971 78.5829 405.311 77.8777C405.526 77.4709 405.691 77.0396 405.803 76.5933C403.888 75.2711 405.513 73.7978 405.601 72.3748C405.692 71.4762 405.658 70.5693 405.5 69.68C406.986 65.3608 407.037 64.5297 406.042 62.2505C407.037 60.752 408.019 59.5053 408.661 58.1076C409.945 55.5261 411.356 53.4987 414.252 52.9321C415.136 52.8125 415.964 52.4307 416.628 51.8358C417.292 51.2409 417.763 50.4604 417.979 49.5951C418.269 48.6381 419.818 47.7062 420.851 47.5551C421.442 47.4544 422.374 48.8773 422.928 49.8092C423.81 51.1314 423.13 52.2143 421.984 52.9447C418.319 55.2995 416.015 58.712 414.063 62.7038C412.237 66.2927 410.336 73.4955 410.965 77.0214C411.52 80.2073 413.333 82.0962 415.927 83.5569ZM607.962 196.297C607.231 198.576 605.166 197.745 603.428 198.576C603.05 199.458 602.358 200.793 601.577 202.367C600.746 201.674 600.205 201.183 599.739 200.843C598.605 201.775 597.334 202.795 595.671 204.23C595.382 203.664 594.387 202.606 594.588 202.027C594.878 201.145 595.999 200.553 596.641 199.961C593.946 199.911 593.795 200.453 594.198 203.588C594.45 205.653 593.858 207.806 593.606 209.897C593.354 210.023 593.115 210.149 592.825 210.224C592.234 209.62 591.554 209.003 591.062 208.247C590.465 207.209 589.988 206.106 589.64 204.961C589.438 204.318 589.3 203.336 589.539 202.895C590.962 200.641 592.284 198.148 594.198 196.524C595.671 195.239 597.925 195.176 600.079 194.496L601.187 189.019C601.388 189.019 601.527 189.019 601.728 189.069L602.219 190.857C604.121 190.152 605.33 189.296 603.252 186.802C604.171 186.928 604.637 187.029 605.821 187.155C605.531 184.271 605.179 181.665 604.939 179.045C604.8 178.231 604.869 177.395 605.141 176.615C605.393 176.023 606.123 175.633 606.614 175.179C607.005 175.633 607.395 176.074 607.684 176.565C609.208 178.97 611.16 181.4 610.291 184.41C609.649 186.576 610.002 188.502 610.09 190.517C610.14 191.562 610.631 192.645 610.581 193.678C610.521 194.682 610.255 195.664 609.8 196.561C609.737 196.763 608.654 196.398 607.962 196.297ZM547.518 302.867C546.485 303.195 545.377 303.199 544.342 302.88C543.306 302.56 542.393 301.932 541.725 301.079C539.182 298.283 536.714 295.677 534.988 291.899C533.011 287.391 530.505 282.908 526.526 279.785C525.48 278.812 524.748 277.549 524.423 276.158C526.728 277.015 529.385 276.007 531.135 278.815C532.319 280.717 534.585 281.875 536.361 283.361C538.212 284.935 540.214 286.408 541.965 288.146C542.657 288.788 542.846 290.01 542.997 291.03C543.828 292.113 544.622 293.221 545.402 294.329L547.216 292.881C547.959 294.165 548.538 295.135 549.23 296.268C546.284 297.842 547.656 300.613 547.405 302.93L547.518 302.867ZM312.228 148.295C312.077 147.728 311.938 147.174 311.888 147.098C311.737 144.844 311.636 143.006 311.548 141.067C313.462 140.676 313.613 135.841 317.29 137.805C316.95 138.573 316.661 139.329 316.258 140.235L319.192 140.575C319.292 140.865 319.393 140.966 319.343 141.041C317.278 145.285 319.683 148.03 322.164 150.775C322.504 151.191 322.705 151.783 322.944 152.299C323.234 152.916 323.335 153.823 323.826 154.062C326.155 155.334 327.818 156.757 325.513 159.653C325.954 159.854 326.395 160.043 326.886 160.32C324.531 163.141 321.811 162.549 319.431 163.191L312.82 164.879C313.752 163.292 314.784 161.567 315.754 159.88C316.006 160.144 316.245 160.371 316.535 160.623C316.245 160.497 315.993 160.308 315.704 160.207C314.381 159.716 311.435 159.817 314.973 157.651C315.162 157.55 315.213 156.795 315.112 156.379C315.012 155.883 314.864 155.398 314.671 154.931C315.792 154.075 317.215 153.281 317.127 153.042C316.787 151.833 316.837 150.095 314.973 149.969C314.381 149.919 313.84 149.063 313.601 148.081C313.11 148.131 312.618 148.181 312.178 148.206L312.228 148.295ZM347.134 40.4026C348.066 41.8004 348.117 43.6892 350.471 44.13C351.705 44.3818 352.537 46.8751 353.632 48.2981C354.224 49.0536 354.866 49.721 355.496 50.4514C355.345 50.6277 355.244 50.7914 355.105 50.9928C355.798 51.081 356.428 51.2321 357.573 51.4336C356.616 53.0202 355.886 54.3802 354.665 56.395C354.514 52.9573 353.053 55.0224 352.436 54.8965C351.907 52.1765 351.365 49.6203 350.824 46.9255C348.62 48.1973 349.502 50.678 348.96 52.5165C348.318 54.821 348.079 57.2387 347.537 59.5809C347.437 59.8453 346.165 60.1727 345.913 59.9209C344.707 58.7115 343.639 57.3728 342.727 55.9291C342.337 55.3121 342.437 54.2669 342.337 53.398L343.029 53.2469C342.538 53.0454 341.858 53.0202 341.657 52.6676C340.473 50.8543 339.478 48.8899 338.446 47.0011C337.866 45.8425 337.123 44.6966 336.872 43.4374C336.72 42.4804 336.922 40.9441 337.564 40.453C338.395 39.7604 339.768 39.5715 340.876 39.71C341.757 39.8359 342.538 40.7678 343.331 41.2841C343.432 40.4278 343.483 39.3826 343.621 37.8967L346.757 39.71C346.845 39.9367 347.046 40.1508 347.134 40.4026Z" fill="#75B962"/>
<path fill-rule="evenodd" clip-rule="evenodd" d="M143.364 49.4191C142.306 49.5954 141.273 49.7591 140.291 49.9605C136.267 50.8396 132.64 53.011 129.965 56.1434C128.895 57.3649 126.339 57.0753 124.5 57.4656C124.21 55.3627 123.971 53.4738 123.619 51.2828C125.873 49.0287 128.442 46.4346 130.998 43.8028C131.338 43.4376 131.64 42.8962 131.93 42.4303C132.32 41.574 132.861 39.874 133.101 39.9244C135.015 40.2896 137.118 38.4259 138.868 40.6673C139.403 41.3702 140.116 41.9179 140.933 42.254C144.044 43.4377 144.975 46.1828 143.364 49.4191ZM157.505 38.174C158.437 38.3251 159.293 38.514 159.935 38.6399C160.477 36.6503 160.766 34.623 161.597 32.9733C162.089 32.0415 163.461 31.6008 164.934 30.6186L164.406 34.7866C164.309 35.6332 164.225 36.4812 164.154 37.3303C165.375 37.4814 166.168 37.557 166.949 37.6703C166.76 38.6273 166.899 39.874 166.37 40.5666C164.456 43.1228 162.353 45.2258 158.84 43.1228C158.059 42.6317 156.535 43.614 155.301 43.7777C153.664 43.9539 151.989 44.1428 150.327 44.0043C149.886 44.0043 149.345 42.808 149.244 42.0651C149.244 41.8006 150.226 41.1332 150.768 41.0325C151.858 40.7907 152.992 40.8428 154.055 41.1836C151.801 40.4029 149.496 39.8614 147.393 38.8036C145.92 38.0229 146.411 36.8896 147.683 35.9074C148.766 35.0763 149.496 33.7541 150.529 32.8978C151.7 31.8904 153.173 30.3415 154.357 30.5178C155.553 30.6186 156.837 32.4319 157.417 33.8044C157.946 35.0385 157.505 36.7007 157.505 38.174ZM674.827 409.273C674.387 413.441 669.942 415.028 669.123 419.398C665.459 418.705 664.728 422.533 662.814 424.749C661.58 426.147 660.422 427.545 659.087 428.766C657.954 429.799 656.783 429.837 655.8 428.426C655.679 428.212 655.511 428.027 655.309 427.885C652.791 425.631 652.64 425.165 655.208 422.76C658.143 420.04 661.492 417.861 664.628 415.381C665.408 414.688 666.114 413.819 666.806 412.938C668.38 410.872 669.841 408.82 671.541 406.616C672.133 407.46 672.523 408.077 672.901 408.744C673.241 408.48 673.593 408.178 674.085 407.762C674.336 408.329 674.525 408.845 674.777 409.361L674.827 409.273ZM299.623 111.915C299.334 112.721 299.233 114.169 298.553 114.786C295.468 117.343 292.269 119.912 288.076 119.395C286.593 119.148 285.17 118.623 283.883 117.846C283.593 117.72 283.933 116.398 283.983 115.592C284.223 115.466 284.474 115.328 284.764 115.227L281.339 113.238L284.676 111.84C284.626 111.638 284.575 111.449 284.575 111.248C283.505 111.198 282.422 111.097 281.339 111.046L281.049 110.165C282.334 109.132 283.606 107.47 284.978 107.319C285.759 107.244 286.867 109.523 287.95 110.921C288.089 110.014 288.24 109.284 288.29 108.918C289.121 108.792 289.713 108.667 290.305 108.604C292.433 108.402 294.599 108.402 296.651 107.886C298.175 107.47 298.074 108.629 298.465 109.384C298.842 110.077 299.132 110.807 299.623 111.915ZM674.827 409.399C677.623 407.233 677.812 406.44 675.81 403.947C674.827 402.675 675.117 401.869 676.301 401.151C678.064 400.119 679.436 396.442 679.046 394.339C678.404 391.052 677.963 387.715 677.27 383.811C680.796 386.733 681.69 389.843 680.62 393.898L681.841 392.475C682.131 393.847 682.333 394.93 682.584 396.001C683 397.524 683.642 398.456 685.254 397.424C685.644 397.172 686.186 397.298 686.677 397.273C686.677 397.713 686.853 398.255 686.627 398.62C685.884 400.408 685.493 402.561 683.101 402.838C682.811 402.889 682.295 403.493 682.244 403.884C681.653 407.561 678.618 408.958 676.565 411.779C675.994 410.965 675.436 410.142 674.89 409.311L674.827 409.399ZM165.715 58.8886C165.614 57.6168 165.564 56.3953 165.463 54.9471C167.566 52.479 167.566 52.479 172.994 52.3279C173.535 55.0731 172.943 57.176 170.123 58.3093H172.011C171.961 63.5981 168.989 66.4063 164.431 68.1692C164.179 67.4263 163.94 66.4944 163.6 65.6633C163.058 64.2404 162.177 62.8678 161.887 61.3945C161.635 60.0219 161.497 57.9441 162.227 57.2012C164.04 55.3123 164.191 58.0827 165.023 58.9893C165.248 58.9251 165.481 58.8912 165.715 58.8886ZM524.486 18.0639L528.314 20.192C528.566 19.1594 528.705 18.3283 528.906 17.4469C531.211 17.7365 533.364 18.3787 535.492 18.278C537.897 18.1268 538.048 20.2927 537.998 21.4261C537.897 22.7483 536.625 24.952 535.782 25.0527C533.906 25.1534 533.553 26.7149 532.47 27.5082C531.727 28.0245 530.846 28.7801 530.077 28.7045C525.821 28.3393 522.862 22.9498 524.486 18.0639ZM215.078 157.462C215.984 157.127 216.883 156.77 217.772 156.392C217.923 156.619 218.024 156.782 218.163 156.946C217.42 158.079 216.689 159.15 215.858 160.434C217.18 160.635 216.349 165.144 219.875 161.731C220.165 163.23 220.417 164.338 220.656 165.584H221.311C221.361 165.836 221.412 165.975 221.361 166.126C221.16 166.692 219.913 166.806 221.16 167.914C222.343 168.946 221.852 170.861 220.744 171.591C220.152 171.994 218.78 170.974 217.697 170.558C217.798 170.294 217.798 170.042 217.898 169.778C217.067 170.294 216.286 170.735 215.443 171.251C215.342 171.125 215.241 170.986 215.103 170.886C215.254 170.445 215.443 170.004 215.846 169.135L208.177 168.279C210.708 164.375 212.912 160.875 215.166 157.387L215.078 157.462ZM583.658 299.19C583.532 300.122 583.432 301.029 583.343 301.948C583.243 302.149 583.054 302.338 582.752 302.691C581.497 302.13 580.401 301.268 579.561 300.18C578.722 299.092 578.165 297.813 577.941 296.458C577.74 298.422 577.601 300.424 577.4 302.565C576.808 302.64 576.128 302.691 575.498 302.741C575.297 302.401 575.158 302.2 575.108 301.96C574.957 300.361 576.09 298.598 574.025 297.201C573.635 296.949 574.226 294.166 574.906 292.806C575.939 290.778 575.498 287.681 578.294 286.824C578.634 286.698 579.037 286.308 579.326 286.358C582.172 287.265 585.031 287.92 587.688 285.326C587.587 287.87 585.963 289.292 584.011 289.129C582.512 288.978 581.039 288.814 579.566 288.864C578.823 288.89 577.45 289.255 577.4 289.645C577.249 290.527 577.74 291.547 577.841 292.138C580.233 291.496 582.21 291.005 584.149 290.476L584.426 291.295L580.384 294.418C581.366 296.155 582.298 297.78 583.243 299.392C583.387 299.337 583.526 299.27 583.658 299.19ZM585.673 264.309C585.58 263.042 585.496 261.774 585.421 260.506C584.64 260.556 583.96 260.796 583.444 260.607C583.155 260.456 583.155 259.662 582.953 259.146C583.155 259.045 583.343 258.97 583.545 258.857C582.07 258.138 580.597 257.416 579.125 256.691V260.116L578.432 260.405C577.79 259.436 577.11 258.504 576.669 257.446C576.078 256.086 575.838 254.575 575.297 253.152C574.164 250.218 575.738 247.624 576.229 244.917C576.279 244.539 578.483 244.539 580.057 244.312C580.057 246.516 580.208 248.455 580.006 250.357C579.906 251.679 579.314 253.001 578.772 254.865C581.656 254.525 583.482 254.688 584.2 257.434C584.401 258.101 585.61 258.592 586.454 258.907C588.091 259.524 588.582 261.186 587.776 262.949C587.386 263.73 587.625 264.876 587.625 265.883L587.675 265.782L585.812 264.473C585.723 264.372 585.723 264.322 585.673 264.309ZM157.744 22.5468C157.744 23.529 158.626 24.952 156.573 25.4431C156.283 25.4934 156.321 26.6645 155.931 27.0171C154.432 28.3897 152.921 29.6615 151.398 30.8956C151.209 31.0467 150.617 30.9963 150.566 30.8452C150.365 30.4297 150.126 29.8126 150.315 29.4726C150.604 28.6667 151.196 27.9489 151.297 26.8282C150.755 27.5208 150.264 28.2512 149.622 28.7926C148.511 29.8182 147.333 30.7689 146.096 31.6385C145.844 31.8274 145.215 31.5882 144.925 31.3489C144.434 31.0089 144.044 30.4171 143.603 30.0393C143.024 29.5734 142.356 29.2334 141.664 28.843C142.52 28.0623 143.263 27.1305 144.144 26.589C146.751 25.1912 149.345 23.9446 151.989 22.7357C152.821 22.3705 153.752 22.4209 154.684 22.3705C155.591 22.3579 156.523 22.4461 157.744 22.5468ZM347.134 40.4029C347.034 40.151 346.845 39.937 346.744 39.7103C345.913 37.5822 346.454 35.8822 348.167 34.7615C349.3 35.4541 350.471 36.134 351.705 36.8644C351.806 35.9829 351.945 35.2274 351.945 34.9252L359.651 36.7133C359.059 38.0355 358.568 39.7984 357.586 41.1584C356.78 42.3043 355.307 43.8028 354.325 43.6769C352.385 43.4251 350.572 42.1532 348.709 41.2718C348.167 41.0703 347.676 40.6925 347.134 40.4029ZM449.511 15.7343C453.264 14.7521 454.838 15.5328 456.437 19.0209C457.016 20.3935 457.797 21.7157 458.641 23.3401C457.507 26.1105 455.14 24.952 453.175 24.5616C451.186 24.0957 449.259 23.189 447.257 22.4964V17.9883C448.05 17.258 448.793 16.515 449.511 15.7343ZM614.132 163.179C614.132 164.992 614.283 166.252 614.082 167.448C613.981 168.04 613.389 169.022 612.898 169.085C610.845 169.425 610.455 170.861 610.505 172.863C608.491 172.913 606.879 169.803 604.763 172.271C605.355 172.686 606.048 173.127 606.929 173.719C605.98 174.523 605.019 175.312 604.045 176.086C603.554 173.366 603.227 171.138 602.774 168.632C603.844 168.758 604.31 168.808 604.952 168.858C604.562 166.214 604.146 163.683 603.743 160.648C604.851 161.328 605.632 161.605 606.085 162.147C608.428 164.992 610.845 167.045 614.132 163.179ZM177.678 44.2184C177.338 44.508 176.696 44.7599 176.595 45.0999C175.613 48.588 173.535 46.825 170.954 46.4095C171.911 44.911 172.54 43.8028 173.132 42.9088C168.989 41.9266 168.397 39.9621 170.803 34.3459C172.301 35.2274 172.691 36.8014 172.301 39.7607C172.691 38.9296 173.132 38.1237 173.774 36.7259C174.366 37.8718 174.706 38.6147 175.046 39.3325C175.462 36.0459 176.633 35.2904 179.239 37.0281C179.781 37.4185 180.272 38.9422 180.02 39.6725C179.491 41.2843 178.446 42.7451 177.628 44.231L177.678 44.2184ZM312.178 148.194C312.77 149.642 313.702 151.116 312.027 152.488C311.926 152.564 311.876 152.803 311.926 152.929C313.299 157.638 309.773 158.369 307.103 159.515C306.272 159.88 305.088 159.288 304.056 159.099C304.257 158.218 304.547 157.286 304.648 156.379C304.824 155.598 304.908 154.8 304.899 153.999C304.849 152.967 304.698 151.934 304.559 150.763L307.065 150.612C307.619 147.086 309.974 147.766 312.241 148.282L312.178 148.194ZM174.429 98.6555C174.753 98.4391 175.09 98.2415 175.437 98.0636L177.502 97.5474C176.419 100.444 178.673 101.766 179.856 103.655C180.587 104.939 181.519 106.085 182.111 107.432C182.249 107.823 181.519 109.195 181.33 109.145C180.263 108.99 179.235 108.64 178.295 108.112C177.854 107.823 177.653 107.08 177.464 106.689L172.78 110.241C172.159 109.167 171.562 108.08 170.991 106.979C171.974 104.486 173.195 101.539 174.429 98.6555ZM179.844 21.9298C179.743 21.0231 179.353 19.7009 179.454 18.4543C179.454 17.7491 180.234 16.6661 180.725 16.6158C181.607 16.515 182.979 16.7669 183.471 17.3965C184.591 19.0083 185.334 20.9224 186.115 22.7861C186.299 23.3366 186.281 23.9348 186.065 24.4734C185.458 26.076 184.721 27.6258 183.861 29.1074C183.471 29.6867 182.488 29.8882 181.796 30.2786C181.594 29.586 181.204 28.8556 181.254 28.1756C181.456 26.1105 180.121 25.2919 178.799 24.7631C177.817 24.3979 176.784 24.3223 177.426 22.9246C177.678 22.4461 178.761 22.3579 179.844 21.9298ZM547.392 302.993C549.306 303.635 551.245 304.517 553.21 304.932C554.33 305.184 555.627 304.756 556.811 304.592C557.139 304.542 557.541 304.277 557.781 304.366C559.745 304.832 561.659 305.398 563.813 305.99C563.12 306.38 562.578 306.67 561.949 307.06C563.422 307.426 564.807 307.652 566.016 308.194C566.507 308.42 566.658 309.327 566.998 309.969V309.894C562.78 309.629 558.461 309.554 554.28 308.005C553.21 307.564 551.837 307.829 550.653 307.514C549.067 307.023 547.543 306.317 545.818 305.637C546.316 304.748 546.828 303.866 547.354 302.993" fill="#75B962"/>
<path fill-rule="evenodd" clip-rule="evenodd" d="M449.513 15.736C448.79 16.5154 448.038 17.2672 447.259 17.99C447.057 18.3804 446.667 18.67 446.566 19.0855C446.277 20.1433 446.075 21.2389 445.685 22.9388C444.58 21.8019 443.468 20.6728 442.348 19.5515C442.981 19.2465 443.602 18.9189 444.212 18.5693C443.431 18.2293 442.688 17.8389 441.945 17.4989C441.655 14.653 440.585 11.4671 443.229 8.69678C444.514 9.60343 446.025 10.636 447.788 11.8197L449.513 15.736ZM614.915 399.982C616.992 403.004 617.043 403.004 622.017 402.022C621.727 403.558 621.765 405.132 621.186 406.341C620.128 408.343 619.385 410.887 616.992 411.529C616.224 411.73 614.663 411.189 614.474 410.66C613.391 407.059 613.983 403.482 614.915 399.982ZM147.962 238.144C150.317 234.316 152.621 233.132 156.034 234.391C160.668 236.141 165.025 238.333 169.495 240.41C169.885 240.587 170.137 241.09 170.968 242.123L163.274 242.929C163.476 242.072 163.564 241.556 163.715 241.002C159.144 237.514 154.296 234.668 147.962 238.144ZM462.219 29.7136C460.758 27.5602 459.335 20.3448 460.166 18.2419C462.37 19.2744 464.662 20.1307 466.727 21.39C468.427 22.4225 468.427 24.4499 466.878 25.8477C465.455 27.1699 463.894 28.341 462.219 29.7136ZM587.576 265.847C587.803 265.507 588.03 265.129 588.231 264.789C591.329 271.35 591.329 271.35 589.956 274.183L589.214 273.025C588.823 273.982 588.722 275.568 588.08 275.795C586.544 276.488 585.171 274.624 584.869 271.488C583.534 271.828 582.2 272.118 580.928 272.458C580.588 270.103 582.3 268.491 584.869 269.121C585.7 269.323 587.325 267.383 587.627 265.734L587.576 265.847ZM174.721 247.424C172.997 246.98 171.271 246.539 169.545 246.102C169.592 245.937 169.642 245.774 169.696 245.611L173.55 244.201C172.992 243.646 172.438 243.088 171.887 242.526C172.328 242.299 172.567 242.035 172.819 242.085C176.03 242.287 179.518 241.569 182.012 244.692C182.301 245.019 182.402 245.561 182.541 246.001C182.1 246.102 181.609 246.253 181.168 246.341C179.254 246.681 177.39 246.958 174.721 247.424ZM383.806 31.678C382.786 31.5521 381.753 31.5521 380.771 31.2876C380.569 31.1869 380.33 30.0284 380.519 29.638C381.552 27.5099 382.975 27.2706 385.745 28.6558C386.286 27.7995 386.777 26.9684 387.369 26.0995C389.837 27.7492 389.132 29.4113 387.999 31.0987C387.797 31.4135 387.369 31.6654 387.269 32.0054C387.067 33.378 386.727 34.675 385.128 33.8187C384.397 33.4409 384.108 32.1817 383.806 31.678ZM160.529 82.224L160.428 82.0226C159.496 81.1915 158.489 80.3604 157.457 79.4285L162.292 75.4115C163.362 76.3937 164.395 77.3256 165.478 78.2574C165.138 79.2396 164.697 80.5115 164.206 81.8211C164.307 82.1107 164.357 82.4003 164.458 82.7026C163.15 82.5314 161.84 82.3719 160.529 82.224ZM491.735 266.099C494.09 266.867 496.823 271.249 496.092 273.251C495.752 274.234 494.581 275.09 493.649 275.442C493.259 275.556 491.874 274.234 491.824 273.453C491.584 271.06 491.735 268.592 491.735 266.099ZM169.004 22.9011C167.971 24.3744 167.241 25.3566 166.561 26.2884C165.377 27.8625 163.413 27.9129 162.443 26.1877C161.751 24.9159 161.36 23.367 160.919 21.8937C160.869 21.5788 161.259 20.987 161.562 20.6974C161.713 20.5211 162.393 20.647 162.393 20.6974C162.833 23.027 164.596 21.6796 165.679 22.07C166.75 22.4099 167.883 22.5988 169.004 22.9011ZM397.985 25.1299C396.511 27.5099 394.95 28.9832 392.293 26.8929C392.444 26.6284 392.683 26.2758 392.935 25.8099C392.581 25.6073 392.237 25.3889 391.903 25.1551C391.903 24.9033 391.903 24.7144 391.953 24.5633C392.494 23.367 392.986 22.1329 393.577 20.9366C393.867 20.3952 394.358 19.9544 394.761 19.4633C395.807 21.3683 396.882 23.2574 397.985 25.1299ZM189.013 23.5307C189.605 25.7595 192.124 27.3839 190.487 30.2928C189.504 32.1565 188.031 31.4261 186.734 31.061C186.394 30.9854 186.142 29.3484 186.293 28.5299C186.633 26.7669 187.326 25.1047 187.842 23.4048C188.22 23.4677 188.623 23.5307 189.013 23.5307ZM177.68 44.2201H177.63C178.75 44.5097 179.984 44.6104 181.017 45.1519C183.12 46.3608 182.39 48.3 181.609 49.9874C181.357 50.5037 179.984 51.0829 179.846 50.9192C178.914 49.8111 176.408 49.66 177.831 47.0156C178.121 46.3356 177.73 45.2023 177.68 44.2201ZM575.538 236.141C572.503 232.15 572.68 229.266 575.878 226.433C577.742 227.705 577.742 228.296 575.538 236.141ZM567.038 309.946C568.839 309.429 570.589 308.624 572.491 308.523C574.846 308.397 577.288 308.913 579.643 309.014C580.663 309.014 581.696 308.674 583.27 308.372C582.678 309.152 582.338 309.946 581.985 309.946C576.986 310.286 572.037 311.709 567.026 309.845C567.035 309.878 567.039 309.912 567.038 309.946ZM539.889 18.4307C541.79 18.2293 543.667 17.9019 545.53 17.99C546.311 17.99 547.092 18.9722 547.885 19.4885C547.193 20.1937 546.651 21.327 545.87 21.5285C543.465 22.1581 540.921 20.6848 539.889 18.4307ZM636.548 302.264L640.691 300.98C641.523 302.189 642.354 302.012 643.437 300.212C643.726 299.67 644.469 299.381 644.96 298.978C645.061 299.721 645.25 300.501 645.061 301.093C643.676 304.833 637.997 305.425 636.548 302.264ZM393.514 30.3054C393.124 30.1543 392.532 29.915 391.89 29.6884V29.0084C394.497 28.8321 397.091 28.6936 400.226 28.4921C398.866 30.8469 398.413 33.2017 395.617 31.2876C394.988 30.8469 393.414 31.9676 392.23 32.358C392.077 32.1826 391.93 32.002 391.789 31.8165C392.381 31.2876 392.923 30.7713 393.514 30.3054ZM537.66 35.7957C538.604 34.0076 539.045 31.678 540.078 31.3884C541.841 30.8469 543.704 31.9676 544.636 34.5742L537.66 35.7957ZM554.572 240.662C554.798 240.914 555.629 241.342 555.68 241.934C555.932 243.508 553.929 245.875 552.67 245.51C552.202 245.308 551.784 245.006 551.444 244.626C551.105 244.245 550.853 243.795 550.706 243.307C550.278 242.022 552.368 240.612 554.572 240.662ZM165.339 18.6826C167.253 18.4307 169.117 18.1411 171.031 18.0907C171.182 18.0656 171.749 20.1559 171.396 20.8863C171.082 21.5285 169.659 22.0574 169.016 21.8181C167.745 21.3774 166.662 20.2944 165.491 19.5137L165.339 18.6826ZM34.9447 112.824C35.0454 111.161 34.6928 109.348 35.2847 108.857C36.8587 107.547 38.7098 106.213 41.5305 107.95C40.4098 108.882 39.5661 109.638 38.6217 110.33C37.6898 111.01 36.7202 111.64 34.9447 112.824ZM591.719 309.769C588.42 311.696 585.36 313.522 582.099 315.398C584.479 310.386 587.035 308.913 591.719 309.769ZM197.5 90.0565C197.349 92.2098 196.669 94.0232 194.453 94.5395C193.131 94.8291 192.438 94.1995 192.741 92.701C193.232 90.2958 195.435 89.1247 197.551 90.0943L197.5 90.0565ZM402.908 28.2654C401.914 28.1395 400.138 28.2906 400.037 27.9003C399.546 26.2758 399.597 24.5633 399.546 22.9011C399.546 22.7751 400.73 22.41 400.919 22.6114C401.75 23.2745 402.425 24.113 402.896 25.067C403.097 25.6588 402.707 26.5151 402.568 27.2706C402.719 27.6106 402.808 27.9254 402.908 28.2654ZM71.2865 131.284L73.4146 132.09C72.9235 134.646 72.3316 137.14 71.8279 139.469C70.1531 138.122 69.662 133.954 71.2865 131.284Z" fill="#75B962"/>
<path fill-rule="evenodd" clip-rule="evenodd" d="M585.674 264.309C585.725 264.334 585.725 264.384 585.825 264.51C585.926 264.951 586.216 265.568 586.077 265.858C585.334 267.331 582.715 267.558 581.494 266.349C581.783 265.266 582.136 264.195 582.476 263.113L582.375 263.163C583.546 263.352 585.082 262.319 585.674 264.309ZM19.8457 68.8867C21.319 70.7252 22.5405 72.3119 24.0767 74.1882C22.8553 74.6037 22.0368 74.8178 21.2057 75.12C20.5131 73.7474 20.8657 71.3926 17.6294 72.4252C18.6242 70.8008 19.1153 70.0452 19.8457 68.8867ZM208.619 423.88C209.4 420.468 210.974 419.788 214.21 421.387C213.228 424.283 210.734 423.251 208.619 423.88ZM593.859 289.292C594.111 289.985 594.3 290.715 594.552 291.471C592.336 290.224 591.908 287.24 593.368 284.532C594.111 284.973 594.842 285.464 595.811 286.106C595.433 287.089 595.03 288.184 594.59 289.292H593.859ZM191.531 33.9805C189.617 35.5042 186.847 35.3027 185.915 34.0057C185.713 33.7412 185.625 33.099 185.764 32.9101C186.104 32.5198 186.696 32.0287 187.036 32.1294C188.446 32.5576 189.768 33.2124 191.531 33.9805ZM599.715 298.22C597.7 298.069 595.786 297.931 593.431 297.729C593.683 297.339 593.872 296.357 594.413 296.105C594.898 295.878 595.424 295.754 595.958 295.739C596.493 295.723 597.025 295.818 597.522 296.016C598.018 296.214 598.469 296.512 598.846 296.891C599.224 297.27 599.519 297.723 599.715 298.22ZM0 123.563C0.98221 122.531 1.27183 120.088 3.42514 121.46C3.67699 121.611 4.20588 121.095 4.60883 120.868C5.77993 120.163 6.88806 119.471 8.1599 118.954C6.53547 122.996 2.69478 121.989 0 123.563ZM403.965 24.2717C401.548 22.5088 401.497 21.4258 403.764 18.9829C404.104 19.4488 404.406 19.8392 404.696 20.3051C404.985 20.7458 405.288 21.237 405.527 21.6777C405.034 22.5588 404.514 23.424 403.965 24.2717ZM405.98 93.165C404.955 93.7369 403.94 94.3247 402.933 94.9279L402.354 91.6917H405.64C405.741 92.1828 405.842 92.6487 405.98 93.165ZM667.525 339.398C669.2 341.4 670.976 343.465 672.902 345.719C670.22 345.631 667.815 343.075 667.525 339.398ZM570.563 268.741C572.062 266.739 573.434 264.75 574.908 262.697C575.16 263.037 575.55 263.578 575.991 264.145C574.366 265.858 572.692 267.558 571.055 269.258C570.908 269.07 570.743 268.897 570.563 268.741ZM178.561 112.255C177.188 113.061 175.866 113.867 174.279 114.774C173.939 111.537 175.01 110.845 178.271 111.537C178.372 111.789 178.46 112.041 178.561 112.255ZM200.283 160.383C201.857 161.29 203.469 162.197 205.118 163.103C202.638 164.212 201.756 163.695 199.993 161L200.283 160.383ZM492.364 45.6663C492.755 44.9611 493.107 44.0796 493.687 43.5382C493.938 43.2989 495.059 43.5382 495.21 43.853C495.487 44.5708 495.45 45.4396 495.538 46.2329L492.893 46.3589C492.717 46.1322 492.566 45.8929 492.364 45.6663ZM582.4 263.113C581.96 263.528 581.519 263.944 581.116 264.384C580.826 263.881 580.373 263.415 580.285 262.898C580.146 261.74 580.096 260.556 580.008 259.196L582.891 262.181C582.734 262.53 582.535 262.86 582.3 263.163L582.4 263.113Z" fill="#75B962"/>
<path fill-rule="evenodd" clip-rule="evenodd" d="M339.857 195.831L338.975 190.278C339.668 189.863 340.297 189.422 341.015 189.019C343.168 190.152 342.237 192.306 342.186 193.98C342.186 194.723 341.116 195.391 340.524 196.108C340.26 196.033 340.058 195.932 339.857 195.831ZM388.199 205.402C389.849 204.86 391.322 204.369 392.934 203.878C391.8 207.114 390.138 207.794 388.199 205.402ZM370.658 204.268C372.559 204.47 374.461 204.608 376.312 204.785C376.261 205.2 376.261 205.641 376.261 206.044L370.658 205.553V204.268Z" fill="#75B962"/>
<path fill-rule="evenodd" clip-rule="evenodd" d="M341.255 189.407C338.925 186.448 339.026 185.756 341.947 184.106C341.696 185.881 341.557 187.393 341.255 189.407Z" fill="#75B962"/>
</svg>
