<svg width="138" height="78" viewBox="0 0 138 78" fill="none" xmlns="http://www.w3.org/2000/svg">
<g clip-path="url(#clip0_3501_210)">
<path d="M109.743 9.03174H100.211V58.8069H109.743V9.03174Z" fill="white"/>
<path d="M75.6482 9.05273C71.5028 9.05273 67.4675 10.3344 64.043 12.5273V9.05273H54.6207V58.7778H54.6307H64.033V29.2892C64.033 23.3114 69.6704 18.4651 75.6482 18.4651C81.626 18.4651 87.2434 23.3114 87.2434 29.2892V58.7778H96.6457L96.6557 28.6784C96.6757 17.8442 86.4924 9.05273 75.6482 9.05273Z" fill="white"/>
<path d="M30.0699 58.7778C34.2154 58.7778 38.2507 57.4962 41.6751 55.3033V58.7778H51.0975V9.05273H51.0875H41.6852V38.5413C41.6852 44.5192 36.0478 49.3655 30.0699 49.3655C24.0921 49.3655 18.4748 44.5192 18.4748 38.5413V9.05273H9.07246L9.05243 39.1521C9.05243 49.9963 19.2358 58.7778 30.0699 58.7778Z" fill="white"/>
<path d="M12.4964 77.1709C11.395 77.1709 10.5338 76.8605 9.90302 76.2296C9.2722 75.5988 8.96179 74.6676 8.96179 73.426V68.4995H9.87298V73.3859C9.87298 74.3972 10.1033 75.1482 10.5639 75.6389C11.0245 76.1295 11.6653 76.3598 12.5064 76.3598C13.3475 76.3598 13.9984 76.1195 14.459 75.6389C14.9196 75.1582 15.1499 74.4072 15.1499 73.3859V68.4995H16.031V73.426C16.031 74.6676 15.7206 75.5988 15.0898 76.2296C14.449 76.8605 13.5878 77.1709 12.4964 77.1709Z" fill="white"/>
<path d="M21.9488 77.1008V68.4995H22.6998L28.6375 75.9693H28.237V68.4995H29.1382V77.1008H28.3872L22.4695 69.631H22.86V77.1008H21.9488Z" fill="white"/>
<path d="M35.1363 77.1013V68.5H36.0475V77.1013H35.1363Z" fill="white"/>
<path d="M43.7068 77.1013V69.291H40.6828V68.5H47.6319V69.291H44.6079V77.1013H43.7068Z" fill="white"/>
<path d="M53.1898 76.3102H58.3666V77.1013H52.2886V68.5H58.1763V69.291H53.1898V76.3102ZM53.0997 72.345H57.6456V73.116H53.0997V72.345Z" fill="white"/>
<path d="M63.6935 77.1013V68.5H67.1981C68.1193 68.5 68.9204 68.6802 69.6113 69.0507C70.3022 69.4112 70.8429 69.9219 71.2234 70.5727C71.6039 71.2236 71.8042 71.9645 71.8042 72.8056C71.8042 73.6467 71.6139 74.3977 71.2234 75.0386C70.8429 75.6894 70.3022 76.1901 69.6113 76.5606C68.9204 76.921 68.1193 77.1113 67.1981 77.1113H63.6935V77.1013ZM64.6047 76.3102H67.1481C67.9091 76.3102 68.5699 76.16 69.1307 75.8596C69.6914 75.5592 70.132 75.1487 70.4424 74.618C70.7528 74.0873 70.913 73.4765 70.913 72.7956C70.913 72.0947 70.7528 71.4939 70.4424 70.9632C70.132 70.4425 69.6914 70.032 69.1307 69.7316C68.5699 69.4312 67.9091 69.281 67.1481 69.281H64.6047V76.3102Z" fill="white"/>
<path d="M122.701 38.5203V29.1581H132.103V19.7458H122.701V9.03174H113.299L113.289 39.1311C113.289 49.9653 122.07 58.7568 132.904 58.7568H137.5V49.3545H133.525C127.547 49.3445 122.701 44.4982 122.701 38.5203Z" fill="#EE7B00"/>
<path d="M0 9.05185L9.05185 0V9.05185H0Z" fill="url(#paint0_linear_3501_210)"/>
<path d="M85.1213 77.1008V69.2905H82.0974V68.4995H89.0464V69.2905H86.0225V77.1008H85.1213Z" fill="#EE7B00"/>
<path d="M93.6927 77.1008V68.4995H96.9069C97.6379 68.4995 98.2587 68.6197 98.7894 68.85C99.31 69.0803 99.7206 69.4207 100.001 69.8613C100.281 70.3019 100.421 70.8326 100.421 71.4534C100.421 72.0642 100.281 72.5849 100.001 73.0154C99.7206 73.456 99.31 73.7864 98.7894 74.0267C98.2687 74.2571 97.6379 74.3772 96.9069 74.3772H94.1933L94.5939 73.9567V77.1008H93.6927ZM94.6039 74.0267L94.2034 73.5962H96.8969C97.758 73.5962 98.4089 73.4059 98.8594 73.0355C99.31 72.655 99.5303 72.1343 99.5303 71.4534C99.5303 70.7625 99.31 70.2318 98.8594 69.8513C98.4089 69.4708 97.758 69.2905 96.8969 69.2905H94.2034L94.6039 68.86V74.0267ZM99.5704 77.1008L97.3575 73.9767H98.3388L100.562 77.1008H99.5704Z" fill="#EE7B00"/>
<path d="M104.397 77.1008L108.332 68.4995H109.233L113.168 77.1008H112.207L108.592 69.0302H108.963L105.348 77.1008H104.397ZM105.949 74.8078L106.219 74.0668H111.215L111.486 74.8078H105.949Z" fill="#EE7B00"/>
<path d="M117.775 77.1008V68.4995H121.279C122.201 68.4995 123.002 68.6797 123.693 69.0502C124.384 69.4107 124.924 69.9214 125.305 70.5722C125.685 71.2231 125.886 71.964 125.886 72.8051C125.886 73.6462 125.695 74.3972 125.305 75.0381C124.924 75.6889 124.384 76.1896 123.693 76.5601C123.002 76.9205 122.201 77.1108 121.279 77.1108H117.775V77.1008ZM118.686 76.3097H121.229C121.99 76.3097 122.651 76.1595 123.212 75.8591C123.773 75.5588 124.213 75.1482 124.524 74.6175C124.834 74.0868 124.994 73.476 124.994 72.7951C124.994 72.0942 124.834 71.4934 124.524 70.9627C124.213 70.4421 123.773 70.0315 123.212 69.7311C122.651 69.4307 121.99 69.2805 121.229 69.2805H118.686V76.3097Z" fill="#EE7B00"/>
<path d="M132.023 76.3097H137.2V77.1008H131.122V68.4995H137.02V69.2905H132.033V76.3097H132.023ZM131.933 72.3445H136.479V73.1156H131.933V72.3445Z" fill="#EE7B00"/>
</g>
<defs>
<linearGradient id="paint0_linear_3501_210" x1="3.16803" y1="10.4131" x2="9.6679" y2="3.91319" gradientUnits="userSpaceOnUse">
<stop stop-color="#E5330F"/>
<stop offset="0.2402" stop-color="#E94F0A"/>
<stop offset="0.5428" stop-color="#ED6B04"/>
<stop offset="0.8065" stop-color="#EF7D01"/>
<stop offset="1" stop-color="#F08300"/>
</linearGradient>
<clipPath id="clip0_3501_210">
<rect width="137.5" height="77.1009" fill="white"/>
</clipPath>
</defs>
</svg>
