<svg width="48" height="48" viewBox="0 0 48 48" fill="none" xmlns="http://www.w3.org/2000/svg">
<path d="M10 22.0005V33.3629C10 34.963 10.9536 36.4092 12.4243 37.0395L22.4243 41.3252C23.4305 41.7565 24.5695 41.7565 25.5757 41.3252L35.5757 37.0395C37.0464 36.4092 38 34.963 38 33.3629V22.0005M44 18.0005V28.0005M3.78887 16.1061L22.2112 6.89495C23.3373 6.33189 24.6628 6.33189 25.7889 6.89495L44.2112 16.1061C44.9482 16.4746 44.9482 17.5264 44.2112 17.8949L25.7889 27.1061C24.6628 27.6691 23.3373 27.6691 22.2112 27.1061L3.78887 17.8949C3.05182 17.5264 3.05182 16.4746 3.78887 16.1061Z" stroke="#57B43D" stroke-width="3" stroke-linecap="round"/>
</svg>
